<?xml version="1.0" encoding="UTF-8" standalone="no"?>
<!-- Created with Inkscape (http://www.inkscape.org/) -->

<svg
   xmlns:dc="http://purl.org/dc/elements/1.1/"
   xmlns:cc="http://creativecommons.org/ns#"
   xmlns:rdf="http://www.w3.org/1999/02/22-rdf-syntax-ns#"
   xmlns:svg="http://www.w3.org/2000/svg"
   xmlns="http://www.w3.org/2000/svg"
   xmlns:sodipodi="http://sodipodi.sourceforge.net/DTD/sodipodi-0.dtd"
   xmlns:inkscape="http://www.inkscape.org/namespaces/inkscape"
   width="40" 
   height="40"
   viewBox="0 0 1052.3622 744.09448"
   id="svg2"
   version="1.1"
   inkscape:version="0.91 r13725"
   sodipodi:docname="gravure-anya-tell-hi-manga-2.svg">
  <title
     id="title3349">Anya Tell Hi</title>
  <defs
     id="defs4" />
  <sodipodi:namedview
     id="base"
     pagecolor="#ffffff"
     bordercolor="#666666"
     borderopacity="1.0"
     inkscape:pageopacity="0.0"
     inkscape:pageshadow="2"
     inkscape:zoom="0.35"
     inkscape:cx="670.09357"
     inkscape:cy="60"
     inkscape:document-units="px"
     inkscape:current-layer="layer1"
     showgrid="false"
     inkscape:window-width="1538"
     inkscape:window-height="877"
     inkscape:window-x="-8"
     inkscape:window-y="-8"
     inkscape:window-maximized="1" />
  <metadata
     id="metadata7">
    <rdf:RDF>
      <cc:Work
         rdf:about="">
        <dc:format>image/svg+xml</dc:format>
        <dc:type
           rdf:resource="http://purl.org/dc/dcmitype/StillImage" />
        <dc:title>Anya Tell Hi</dc:title>
      </cc:Work>
    </rdf:RDF>
  </metadata>
  <g
     inkscape:label="Calque 1"
     inkscape:groupmode="layer"
     id="layer1"
     transform="translate(0,-308.26772)">
    <path
       style="fill:#000000"
       d="m 877.20539,1031.5239 c -17.22103,-0.065 -71.96281,-0.2007 -121.6484,-0.3013 -210.99268,-0.4276 -254.47185,-0.534 -297.3794,-0.7268 -49.66633,-0.2232 -50.67221,-0.2208 -59.32605,0.139 -9.00231,0.3744 -69.50432,0.903 -103.14074,0.9012 l -16.24905,0 -0.15703,-0.3734 c -0.0864,-0.2054 -2.04854,-5.9739 -4.36037,-12.8189 -2.31183,-6.845 -4.53219,-13.3876 -4.93411,-14.539 -0.40192,-1.1514 -2.2248,-5.48241 -4.05083,-9.62443 -5.84874,-13.26701 -10.49885,-23.89136 -11.53964,-26.36527 -0.89679,-2.1316 -1.11128,-2.449 -1.87985,-2.78209 -0.47717,-0.20678 -7.66251,-2.84759 -15.96745,-5.86845 -22.97827,-8.35815 -31.54517,-11.53442 -33.44466,-12.4 -2.58924,-1.1798 -5.82349,-2.45515 -20.45687,-8.06678 -7.33336,-2.81213 -13.76196,-5.30787 -14.28578,-5.54603 -0.52381,-0.23815 -6.85248,-4.50257 -14.0637,-9.47664 -7.21122,-4.97407 -19.54797,-13.46233 -27.41498,-18.86282 l -14.30368,-9.81907 -11.89088,-16.15053 -11.890882,-16.15054 -6.670917,-16.594 -6.670937,-16.59399 -0.156006,-2.44912 -0.155994,-2.44911 -4.021008,-2.30099 C 56.519638,813.93329 47.137637,804.499 43.494131,794.49707 c -2.667731,-7.32331 -1.988746,-15.82991 1.792107,-22.4523 0.430169,-0.75348 2.394002,-3.64911 4.364068,-6.43472 1.970066,-2.78485 3.581949,-5.09255 3.581949,-5.12744 0,-0.0349 -0.977542,-0.36124 -2.172298,-0.72521 -18.907768,-5.76024 -30.594721,-14.9492 -34.085799,-26.80024 -2.012813,-6.8328 -1.225036,-14.59453 2.255841,-22.22619 2.427164,-5.32147 11.480427,-11.16799 21.717562,-14.02503 4.127133,-1.15182 10.900141,-2.19492 14.252007,-2.19492 2.20132,0 2.705762,-0.29245 6.010664,-3.48474 0.975222,-0.94199 2.311044,-1.88613 4.021669,-2.84251 2.156221,-1.20549 3.009392,-1.55246 5.393279,-2.19336 4.439089,-1.19341 7.157546,-1.49252 13.695277,-1.5068 4.735,-0.0103 5.44652,-0.0454 5.294472,-0.26087 -0.0966,-0.1369 -1.384651,-2.22774 -2.862309,-4.64632 -7.812226,-12.78675 -12.898904,-24.62777 -15.147958,-35.26223 -0.765899,-3.62151 -0.765108,-12.20625 0.0011,-14.76866 2.351894,-7.8626 7.651114,-12.41954 16.801807,-14.44835 1.725966,-0.38267 2.303412,-0.43444 3.915415,-0.35107 8.585922,0.44404 15.244472,4.83727 19.649542,12.96455 2.2207,4.09714 3.44168,7.55849 5.68124,16.1057 1.97726,7.54622 2.52962,8.88554 3.44692,8.35785 0.69133,-0.3977 6.46938,-6.31709 23.16454,-23.73121 3.77142,-3.93381 7.77291,-7.86504 9.28982,-9.12668 6.32448,-5.2602 19.78876,-17.45513 23.13933,-20.95786 1.00455,-1.05017 1.74096,-1.98599 1.63648,-2.07961 -0.10451,-0.0936 -0.066,-0.17022 0.0853,-0.17022 0.15143,0 1.05951,-1.51213 2.01794,-3.36028 2.69464,-5.19606 3.60399,-3.17337 -8.56051,-19.04162 l -10.24042,-13.35816 -10.46813,-17.34072 c -5.75746,-9.53741 -13.22621,-22.26914 -16.59721,-28.29276 l -6.12911,-10.95204 -3.6468,-12.0771 c -2.21406,-7.33233 -3.53849,-12.1361 -3.37112,-12.22725 0.21206,-0.11549 55.17002,-11.21559 98.25356,-19.84472 4.67743,-0.93683 8.78235,-1.52142 23.37088,-3.32824 22.39631,-2.77386 37.82157,-4.20325 46.05274,-4.26752 l 3.64204,-0.0284 3.19747,-2.57089 c 3.06289,-2.46269 3.26559,-2.5864 4.81566,-2.9391 0.88997,-0.20251 4.85858,-1.0742 8.81908,-1.93709 5.69749,-1.24134 7.44911,-1.69587 8.38955,-2.177 0.65375,-0.33447 4.69425,-2.26144 8.9789,-4.28218 4.28467,-2.02073 15.29672,-7.58341 24.47126,-12.36149 l 16.68096,-8.68741 7.85816,-3.06601 c 4.32199,-1.68631 8.20887,-3.16553 8.63749,-3.28716 0.42864,-0.12163 7.99283,-1.94373 16.80934,-4.04911 12.32193,-2.94248 17.20831,-4.19674 21.12368,-5.42216 5.65791,-1.7708 19.15869,-5.51383 25.16864,-6.97791 16.67218,-4.06148 32.28868,-6.80762 45.24361,-7.95603 5.14899,-0.45644 8.41864,-0.59694 13.78282,-0.59228 5.12209,0.004 5.61174,0.0339 9.73787,0.58569 8.24434,1.10253 24.97049,2.92347 25.17448,2.7407 0.10656,-0.0955 1.5834,-3.9978 3.28172,-8.67164 3.50406,-9.64333 2.99815,-8.7623 9.10313,-15.85259 16.45801,-19.11415 30.55307,-30.23073 38.33057,-30.23073 0.68459,0 1.31486,0.24523 2.87866,1.12009 7.92138,4.43155 11.56636,12.40255 11.02173,24.10278 -0.41102,8.82999 -3.16318,19.32293 -7.81234,29.78537 -0.56755,1.27726 -1.00824,2.33542 -0.97927,2.35146 0.0291,0.0161 1.39195,-0.15016 3.02887,-0.36932 7.28263,-0.97506 15.32728,-1.41858 25.63578,-1.41337 13.40659,0.007 25.01745,0.89765 37.80847,2.90097 22.64552,3.54674 45.65869,10.69353 64.76981,20.1144 1.45903,0.71924 2.99468,1.4101 3.4125,1.53525 0.41783,0.12516 1.65103,0.69105 2.74047,1.25756 1.08942,0.56649 7.84597,4.0443 15.01454,7.72846 7.16856,3.68414 15.54906,7.99565 18.62335,9.58112 l 5.58959,2.88264 14.18577,10.6823 14.18575,10.68229 8.23974,2.23877 c 19.20671,5.21856 33.35353,7.99926 40.14995,7.89189 1.23597,-0.0195 2.44946,0.0109 2.69665,0.0676 0.24719,0.0567 5.30339,0.89279 11.236,1.85798 5.9326,0.96518 19.48322,3.17497 30.11247,4.91063 l 19.32591,3.15576 28.08143,6.89932 28.08145,6.89932 2.16741,1.57617 2.16741,1.57617 -0.67713,1.84207 c -0.37241,1.01314 -2.56822,6.58381 -4.87957,12.37927 l -4.2025,10.53719 -13.27124,21.73812 -13.27124,21.73814 -7.9988,16.594 -7.99884,16.59399 15.32516,15.48151 15.32511,15.48152 27.57003,34.05157 27.57001,34.05155 14.7811,21.40625 c 8.1297,11.77344 15.3261,22.09247 15.9923,22.93118 3.7663,4.74205 6.3165,11.63482 7.5705,20.46213 0.462,3.25217 0.4581,13.76943 -0.01,17.58963 -1.3232,10.87872 -2.9809,15.92711 -8.8815,27.04821 -2.1198,3.99542 -8.7719,15.16461 -11.0688,18.58528 l -1.3929,2.07424 -7.8508,5.98263 c -4.3179,3.29044 -9.6433,7.34103 -11.8342,9.00127 l -3.9835,3.01865 -1.55964,-0.43386 c -0.8578,-0.2386 -1.5989,-0.45283 -1.64692,-0.47604 -0.048,-0.0233 0.39906,-0.92898 0.99353,-2.01281 3.04723,-5.55562 5.36103,-11.89374 6.56523,-17.98379 1.6062,-8.12279 1.3869,-18.19367 -0.5927,-27.21415 -0.8555,-3.89821 -3.6627,-12.42283 -4.3049,-13.07207 -0.1151,-0.11646 -2.20441,3.16915 -4.64281,7.30135 l -4.43345,7.51309 -7.50206,9.29264 -7.50205,9.29264 -6.2293,4.81226 c -8.12901,6.27983 -8.01446,6.19874 -20.06427,14.20213 -5.6907,3.77973 -12.36775,8.22932 -14.83788,9.88798 -4.48436,3.01119 -4.51914,3.02954 -23.06159,12.17228 -10.21379,5.03611 -18.86656,9.31683 -19.22842,9.51272 l -0.65792,0.35619 2.16009,8.35854 2.16014,8.35857 0.95313,0.44067 0.95312,0.44068 -0.46079,1.01313 c -0.5183,1.13951 -0.74473,1.23662 -3.82021,1.63831 -7.58523,0.99073 -19.41431,-1.33527 -33.0579,-6.50027 -2.01523,-0.76291 -3.73668,-1.3871 -3.82536,-1.3871 -0.27335,0 -11.38099,4.65642 -11.48157,4.81318 -0.052,0.0811 6.60422,7.78665 14.7916,17.12355 l 14.88618,16.97618 8.22313,11.6988 8.22313,11.69877 6.71322,17.56454 6.71322,17.56465 0.9171,5.95631 0.91706,5.95631 4.61,6.09933 c 2.5355,3.35466 5.0643,6.68528 5.61956,7.40128 l 1.00956,1.3021 8.5296,2.6196 8.52955,2.6196 6.51011,11.8427 c 3.58056,6.5135 6.51317,11.8987 6.51687,11.9672 0.008,0.1404 -25.69774,0.1216 -71.90361,-0.052 z m -71.61075,-1.6423 c 0,-0.088 -0.9455,-5.4831 -2.10113,-11.9891 -2.68504,-15.1165 -7.19715,-38.0068 -9.90414,-50.2443 -2.04848,-9.26074 -2.25885,-9.99088 -7.14768,-24.808 l -5.03708,-15.26656 0.69652,-7.21835 c 0.38306,-3.97011 0.83455,-9.60792 1.0033,-12.52847 0.16874,-2.92053 0.46007,-7.01249 0.64743,-9.09322 0.18732,-2.08074 0.26421,-3.82547 0.17081,-3.87718 -0.19454,-0.10776 0.0597,-0.16533 -19.67054,4.45518 -12.26962,2.87335 -15.72629,3.75741 -20.05011,5.12788 -2.87351,0.91076 -5.31454,1.59747 -5.42453,1.526 -0.11,-0.0715 -2.22973,-3.34087 -4.71052,-7.26536 l -4.51051,-7.13541 -1.2197,-5.55899 -1.21969,-5.55899 -0.19275,-10.03936 c -0.17208,-8.96258 -0.71107,-18.49477 -1.05376,-18.63541 -0.33244,-0.13645 -23.34747,-5.5538 -23.34747,-5.49561 0,0.0367 3.11411,5.35057 6.92027,11.80852 l 6.92029,11.74171 2.68217,8.87779 c 4.1983,13.89615 7.70751,30.76758 11.18288,53.7645 l 0.99053,6.55472 -1.99422,1.01556 c -1.09682,0.55853 -2.39612,1.20225 -2.88736,1.43046 l -0.89313,0.4148 -22.92143,-2.201 c -12.60679,-1.21056 -26.89718,-2.65168 -31.75644,-3.20263 -4.85925,-0.55094 -8.86406,-0.98562 -8.89956,-0.96594 -0.0356,0.0195 1.81246,3.41351 4.10662,7.54189 3.66488,6.595 4.42599,8.17545 6.27029,13.02034 1.15452,3.03285 2.13621,5.6873 2.18154,5.8987 0.0771,0.35953 -1.11508,0.66176 -18.46781,4.68106 -16.38178,3.79437 -20.38348,4.63667 -18.60282,3.91555 0.43796,-0.17736 0.0567,-1.13777 -3.86296,-9.73305 -3.45062,-7.56669 -13.91514,-28.59283 -14.32463,-28.78239 -0.0497,-0.0226 -11.77883,-0.082 -26.06491,-0.13204 l -25.97463,-0.0902 -0.16276,0.44155 c -0.0894,0.24287 -0.98139,3.35384 -1.98199,6.91334 -1.36951,4.87165 -2.28697,9.01509 -3.71112,16.75987 -1.04051,5.65859 -1.78059,10.36661 -1.64465,10.46247 0.18522,0.13051 -1.09765,5.28634 -1.37056,5.50809 -0.0273,0.0226 -0.57866,-0.0984 -1.22523,-0.26829 -0.64659,-0.16978 -9.60261,-2.38298 -19.90227,-4.9183 -10.29967,-2.53532 -18.76787,-4.62785 -18.8182,-4.65 -0.0504,-0.0225 0.65177,-3.16612 1.56031,-6.98674 1.59542,-6.70901 1.75469,-7.19106 4.66087,-14.10818 1.65492,-3.93903 3.00897,-7.25791 3.00897,-7.37539 0,-0.11739 -0.6267,-0.51896 -1.3927,-0.89224 l -1.39266,-0.67868 -3.47627,0.29772 c -3.43069,0.29372 -3.65293,0.29208 -16.95944,-0.12651 -7.41575,-0.23323 -21.97761,-0.71918 -32.35967,-1.07984 -10.38206,-0.36067 -18.9776,-0.65582 -19.1012,-0.65582 -0.12359,0 -0.24302,-4.98453 -0.26537,-11.07655 -0.0224,-6.09207 -0.12348,-13.4421 -0.22473,-16.33339 l -0.18405,-5.2569 -8.9888,-5.28603 c -8.92659,-5.24944 -9.03332,-5.30473 -15.42282,-7.98999 -3.58591,-1.50702 -6.48626,-2.61724 -6.552,-2.50801 -0.0648,0.10775 0.11949,1.96185 0.40964,4.12018 0.40912,3.04322 0.48603,4.91437 0.34263,8.33433 -0.11497,2.74222 -0.0761,4.4704 0.10288,4.56952 0.18401,0.1019 0.11988,0.69223 -0.17779,1.63676 -0.2561,0.81254 -0.39895,1.61849 -0.31751,1.791 0.0814,0.17251 -0.0368,0.60385 -0.26268,0.95849 -0.22596,0.35466 -0.63303,1.31446 -0.90461,2.13288 -0.33774,1.01787 -0.60883,1.46358 -0.85794,1.41063 -0.24603,-0.0523 -1.31757,1.55345 -3.3018,4.94775 -2.69406,4.60857 -3.9027,6.2918 -14.57917,20.30375 -10.38296,13.62675 -12.33206,16.04869 -18.02835,22.40185 l -6.38678,7.1234 -19.13322,13.77295 c -10.52331,7.5752 -20.02479,14.28483 -21.11448,14.9104 -4.42891,2.5424 -11.98416,6.3543 -13.48898,6.80569 -7.57884,2.27328 -17.14272,0.37379 -28.52116,-5.66474 -6.41795,-3.40592 -9.08917,-5.26748 -22.41731,-15.62231 -5.45248,-4.23602 -9.91359,-7.60134 -9.91359,-7.47832 0,0.12292 0.74823,2.35673 1.66274,4.96392 1.72017,4.90414 9.00803,21.2241 14.30669,32.03751 1.70835,3.4864 4.14128,9.1396 6.22204,14.4578 l 3.41678,8.7329 78.50707,0.1056 c 43.17889,0.058 146.73205,0.1797 230.11813,0.2702 123.8844,0.1345 154.48784,0.2112 167.34146,0.4193 29.1194,0.4715 32.49493,0.5216 36.92899,0.5475 2.66838,0.015 4.41948,-0.038 4.41948,-0.1342 z m 137.5286,0.091 c 0,-0.088 -8.14505,-13.107 -8.23984,-13.1704 -0.0389,-0.026 -2.27953,-0.1962 -4.97917,-0.3783 l -4.90839,-0.331 -18.87648,-5.416 c -10.38206,-2.9788 -23.66301,-6.7606 -29.51321,-8.4039 l -10.63676,-2.98774 -26.36713,-10.11647 c -14.50193,-5.56407 -26.53176,-10.18813 -26.73293,-10.27578 -0.27242,-0.11872 -0.0429,-0.36702 0.89888,-0.97271 0.69555,-0.4473 1.41966,-0.81329 1.60915,-0.8134 0.18945,0 13.94231,4.80071 30.56191,10.66834 l 30.21743,10.66833 20.22312,5.88413 c 14.06771,4.0932 22.8,6.5214 28.68925,7.9778 4.65637,1.1515 8.46612,2.064 8.46612,2.0279 0,-0.036 -1.11236,-1.2269 -2.47191,-2.6461 l -2.47192,-2.5801 -7.47413,-3.4809 -7.47412,-3.4808 -6.12102,-6.66998 -6.121,-6.66985 -6.39845,-17.96858 -6.39846,-17.96848 -8.5292,-14.00044 -8.52923,-14.00054 -7.81597,-9.51597 c -6.45276,-7.85629 -22.10286,-25.79316 -22.37383,-25.64308 -0.0412,0.0228 -0.4238,1.81134 -0.85029,3.97455 l -0.7754,3.93309 -6.83901,11.82592 -6.83897,11.82593 -9.20211,10.70317 c -5.06118,5.8867 -9.31919,10.76973 -9.46233,10.85103 -0.30939,0.17602 -3.29133,-1.15653 -3.29133,-1.47075 0,-0.11739 4.22917,-5.4309 9.39811,-11.80785 l 9.39816,-11.5944 6.36694,-10.70312 6.36697,-10.70313 1.74694,-5.36863 1.74692,-5.36862 -0.79536,-0.68819 c -0.43749,-0.3785 -0.81568,-0.70876 -0.84048,-0.73391 -0.0681,-0.0691 -46.99365,8.45208 -47.20149,8.57125 -0.0992,0.0569 -0.0879,2.00751 0.0248,4.33483 0.17915,3.6954 0.085,5.33513 -0.74295,12.94332 l -0.94807,8.71184 1.4186,6.2228 c 0.78027,3.42242 2.58818,9.99365 4.01761,14.60264 1.42946,4.60899 2.78425,9.052 3.01071,9.8735 0.22642,0.82139 0.67727,2.24016 1.00186,3.15279 2.44827,6.88381 9.72684,36.79023 15.00344,61.64676 1.65652,7.8032 3.09122,14.4679 3.18821,14.8101 l 0.17636,0.6222 14.34768,-0.041 14.34764,-0.041 -1.89621,-1.0786 c -4.68292,-2.6637 -24.45474,-14.2754 -24.45474,-14.3619 0,-0.2684 1.31424,-1.7399 1.51725,-1.6989 0.12946,0.027 8.02786,3.8933 17.55203,8.5935 l 17.31665,8.5459 35.5151,0.084 c 19.53331,0.046 39.3241,0.1025 43.97956,0.1245 4.65544,0.022 8.46444,0.01 8.46444,-0.029 z M 318.31215,995.98247 c 0.33773,-0.20535 1.25744,-0.91478 2.04384,-1.57655 0.93963,-0.79064 1.54307,-1.15427 1.76027,-1.06067 0.21621,0.0933 4.94858,-2.56198 13.68473,-7.67824 l 13.35424,-7.82074 16.03527,-13.76936 16.03529,-13.76946 9.52794,-11.7817 9.52793,-11.7818 6.39879,-10.16994 6.3988,-10.16995 1.19751,-7.66859 c 0.65865,-4.21771 1.20831,-8.04194 1.22152,-8.49828 0.0287,-0.99828 -1.62976,-11.82041 -1.82673,-11.91905 -0.98122,-0.49131 -38.5792,-11.65063 -38.81442,-11.52034 -0.0637,0.0354 0.0635,3.00878 0.283,6.60767 0.21945,3.59889 0.35029,7.6262 0.29082,8.94957 -0.0595,1.32337 -0.23398,5.40784 -0.38775,9.07657 -0.2731,6.51545 -0.30391,6.74871 -1.3256,10.03936 -0.57532,1.85293 -1.5212,4.93707 -2.10203,6.85368 -6.5446,21.5967 -9.26365,29.74735 -13.11955,39.32774 -2.16722,5.38476 -4.03716,9.85289 -4.15536,9.92916 -0.20813,0.13441 -3.57998,-0.99577 -3.57845,-1.19927 0,-0.0554 2.15582,-5.72862 4.78975,-12.60679 l 4.78899,-12.50569 2.99087,-11.80448 c 2.30227,-9.08668 3.33709,-13.79704 4.49466,-20.45927 l 1.50383,-8.65484 -3.60298,-8.27103 c -1.98161,-4.54907 -3.63524,-8.33325 -3.6747,-8.40931 -0.0395,-0.0761 -1.46203,4.143 -3.16127,9.37561 -3.4808,10.71895 -3.4639,10.67909 -13.9173,32.83983 l -7.01099,14.86309 -4.76188,5.87655 c -6.67497,8.23759 -20.37847,22.59603 -25.80636,27.03965 -2.06239,1.68851 -3.98269,3.20621 -4.26734,3.37271 -0.49703,0.29085 -0.56162,0.2688 -1.63114,-0.55566 -0.61247,-0.47221 -1.05346,-0.94442 -0.97999,-1.0495 0.0735,-0.10508 4.52136,-4.34787 9.88411,-9.42835 l 9.75049,-9.23726 7.07079,-8.91145 7.0708,-8.91135 8.3985,-20.51535 8.39848,-20.51535 2.53244,-8.96077 2.53245,-8.96076 1.7e-4,-5.40852 1.5e-4,-5.40852 -20.74914,-9.98323 c -20.46168,-9.84491 -20.8716,-10.05425 -29.58812,-15.10935 -4.86144,-2.81937 -8.87797,-5.0691 -8.92561,-4.99941 -0.0476,0.0697 1.3266,4.18762 3.05385,9.15098 6.81418,19.58096 7.66892,22.21651 7.20503,22.21651 -0.13315,0 -1.1662,-0.16484 -2.2957,-0.36632 -1.51297,-0.26986 -2.0914,-0.45553 -2.19705,-0.70523 -0.0789,-0.18642 -1.74903,-5.26736 -3.71147,-11.29098 -6.02648,-18.49798 -6.73084,-20.54202 -6.96683,-20.21743 -0.1218,0.16756 -0.6963,1.64875 -1.27665,3.29156 -0.74683,2.11397 -1.49136,5.31479 -2.54753,10.95204 -0.82078,4.38081 -1.71005,8.5625 -1.97618,9.29264 -0.26612,0.73012 -1.69627,4.42644 -3.17809,8.21402 l -2.69423,6.88651 -5.86483,8.37996 c -3.22565,4.60898 -9.08737,12.86036 -13.02604,18.33637 -6.9066,9.60241 -7.24174,10.02256 -9.42628,11.81727 -1.24579,1.02348 -2.45579,1.94853 -2.68889,2.05566 -0.49474,0.2274 -1.00657,0.0116 -2.83014,-1.19309 l -1.15235,-0.76131 10.50391,-12.84577 c 11.29685,-13.81549 10.23171,-12.32249 18.57575,-26.038 3.84845,-6.32589 3.89544,-6.42131 4.78003,-9.70749 0.49135,-1.82533 2.31454,-8.35922 4.05152,-14.51974 3.0366,-10.76986 3.18435,-11.4181 3.83912,-16.84291 l 0.68096,-5.64196 -4.61025,-11.20095 -4.61025,-11.20094 -4.96049,-8.13106 -4.96049,-8.13106 -3.3558,-1.68226 c -3.0844,-1.54621 -4.36039,-2.41182 -15.77756,-10.70313 -11.85803,-8.61147 -12.73452,-9.20228 -19.31317,-13.01855 -3.79029,-2.19873 -6.92553,-3.95287 -6.96722,-3.8981 -0.0416,0.0548 1.34305,2.4511 3.0772,5.3252 2.58495,4.28417 3.53399,6.15241 5.26772,10.36976 l 2.11472,5.14415 0.38081,8.13106 0.38082,8.13105 -6.11232,8.71184 c -3.67807,5.24235 -6.51242,9.04229 -7.11699,9.54155 -0.55259,0.45634 -2.54267,1.98714 -4.4224,3.40178 -3.35492,2.52482 -3.70329,2.72216 -18.9698,10.74472 -17.05091,8.96026 -15.9522,8.47751 -23.30877,10.24174 -6.36076,1.52543 -4.95115,1.44049 -17.34345,1.0451 l -10.87578,-0.34701 -17.41725,-7.26046 c -14.80017,-6.16953 -19.73,-8.11368 -32.809115,-12.93886 -8.465518,-3.12313 -15.437071,-5.69961 -15.49234,-5.72555 -0.198264,-0.093 -1.862977,-4.13635 -1.781039,-4.32585 0.04608,-0.10654 8.443347,2.96591 18.66061,6.82767 18.292344,6.91385 18.608104,7.04255 20.617434,8.40397 2.72698,1.84771 8.18565,4.89652 11.14299,6.22369 8.98989,4.03444 19.37478,6.36349 28.35317,6.35889 4.61109,-0.002 10.76447,-0.79686 15.44297,-1.99393 6.7233,-1.72027 8.73995,-2.66819 29.24646,-13.74718 l 14.01616,-7.57247 6.87302,-11.53481 6.87301,-11.53478 -2.18938,-10.78414 -2.18938,-10.78412 -7.27814,-8.37996 c -4.00298,-4.60898 -8.55994,-9.87344 -10.1266,-11.69878 -1.56666,-1.82533 -3.08117,-3.46813 -3.36558,-3.65067 -0.2844,-0.18254 -1.31087,-0.9666 -2.28103,-1.74237 -1.50431,-1.2029 -1.77493,-1.34944 -1.83868,-0.99564 -0.0411,0.22816 -0.68778,4.7446 -1.43705,10.03651 -1.33601,9.43593 -1.4057,9.77231 -3.61045,17.42369 l -2.24816,7.80203 -4.40471,5.0511 -4.40471,5.0511 -6.27385,4.57342 c -3.45062,2.51539 -8.0808,5.8802 -10.2893,7.47737 l -4.01544,2.90395 -5.59092,0.95972 -5.59091,0.95971 -6.62086,-0.062 -6.62086,-0.0621 -7.46159,-2.20367 c -6.47507,-1.9123 -9.78534,-3.06142 -25.0373,-8.6915 l -17.575696,-6.48784 -3.054697,-3.19934 c -2.293157,-2.40172 -3.327062,-3.31754 -4.147222,-3.67352 -2.689305,-1.16722 -14.19625,-5.68278 -14.314484,-5.61729 -0.166218,0.0921 0.633875,4.73744 2.792448,16.2132 l 1.701117,9.04372 -1.143043,4.48038 -1.143033,4.48038 3.797158,10.49896 c 2.440141,6.74685 5.030184,13.29985 7.247365,18.33636 1.897604,4.31057 3.766944,8.62148 4.154084,9.57977 0.489774,1.21234 3.680854,6.13398 10.490234,16.17916 l 9.786349,14.43677 9.30812,9.95639 9.30812,9.9564 6.24869,4.89523 c 7.19783,5.63879 7.87958,6.12289 25.74836,18.28361 l 13.35093,9.08608 30.09493,13.88401 30.09492,13.88397 7.79029,2.82771 c 4.28466,1.55523 13.98396,5.10068 21.55399,7.87876 9.46573,3.47379 17.75072,6.34661 26.53164,9.19964 l 12.76793,4.14857 4.89599,5.24902 c 2.6928,2.88707 5.24272,5.54787 5.66648,5.91295 0.77594,0.66843 1.16504,1.41693 0.72932,1.40298 -0.27802,-0.0103 -1.26677,-0.74634 -10.21607,-7.61969 l -6.79799,-5.22104 -4.4944,-0.9397 c -2.47192,-0.5168 -4.53631,-0.9195 -4.58752,-0.89479 -0.0512,0.0246 1.13447,2.53563 2.63488,5.57996 2.06645,4.19276 2.8883,5.62086 3.38902,5.88875 0.36356,0.19458 5.24529,2.37456 10.84832,4.84437 5.60301,2.46992 10.70622,4.73766 11.34046,5.03938 2.02054,0.96133 5.43245,2.45463 5.61111,2.45576 0.0949,0 0.44882,-0.1668 0.78656,-0.37215 z m 238.08649,-48.41302 c 1.30133,-5.80847 6.05701,-23.91299 7.51907,-28.62465 0.56641,-1.82534 2.45586,-8.24721 4.19872,-14.27084 1.7429,-6.02361 3.68891,-12.2588 4.32448,-13.85598 l 1.15558,-2.90394 12.10356,-0.0829 12.10353,-0.0829 3.70027,-1.29718 c 2.03516,-0.71342 3.74998,-1.26962 3.81071,-1.23598 0.50031,0.27708 6.03172,13.9195 9.26907,22.86079 4.35349,12.02403 3.00798,9.04947 16.17591,35.76009 0.89987,1.82537 3.67711,7.91116 6.17166,13.52413 2.49451,5.61287 4.63268,10.26379 4.75148,10.33525 0.19868,0.11964 25.30476,-5.88178 25.89469,-6.18986 0.14688,-0.0769 -0.0833,-2.49133 -0.52786,-5.53854 l -0.78822,-5.40249 -3.24777,-4.35987 c -1.78628,-2.39794 -5.09911,-7.1602 -7.36186,-10.58263 l -4.11408,-6.22276 -12.41497,-12.47614 -12.41497,-12.47612 -5.71479,-7.43668 c -3.14311,-4.09016 -5.79159,-7.54021 -5.8855,-7.66674 -0.42898,-0.57807 1.03755,0.20896 8.62259,4.62747 l 8.11857,4.72929 12.58954,10.16483 c 6.92425,5.59065 12.77245,10.36973 12.996,10.62016 0.22359,0.25042 0.95887,1.68743 1.63402,3.19334 0.67514,1.50591 1.29043,2.83734 1.36725,2.95872 0.15356,0.24267 0.45505,0.0994 9.17303,-4.36255 l 5.49891,-2.81429 3.22098,-3.1202 c 1.77154,-1.7161 3.22099,-3.19319 3.22099,-3.28243 0,-0.0892 -6.0424,-4.43794 -13.4275,-9.66384 -7.38513,-5.2259 -14.77078,-10.47239 -16.41255,-11.65886 -3.41809,-2.47018 -4.28233,-2.94163 -26.78939,-14.61378 -18.86673,-9.7843 -19.15692,-9.93245 -19.28418,-9.84514 -0.0527,0.0362 -0.39155,3.31402 -0.75302,7.28414 -0.67827,7.44967 -0.80058,8.297 -1.19755,8.297 -0.12853,0 -0.87296,-3.64031 -1.65424,-8.08958 -0.7813,-4.44926 -1.50001,-8.49308 -1.59713,-8.98626 l -0.17659,-0.89671 -6.4702,0.10777 c -7.31634,0.12182 -24.99035,0.61253 -25.15551,0.69841 -0.0596,0.0311 0.85187,3.06606 2.0256,6.74455 2.15305,6.74776 2.32716,7.4349 1.88366,7.4349 -0.32,0 -0.52783,-0.24583 -5.96209,-7.05246 -2.55031,-3.19434 -4.67262,-5.8285 -4.71631,-5.85369 -0.12938,-0.0746 -16.63889,13.46281 -28.18535,23.11145 l -10.72328,8.96076 -9.55446,9.75292 -9.55447,9.75294 0.0879,1.19041 0.0879,1.1904 11.32582,4.03271 c 6.22921,2.21802 11.43123,4.03283 11.5601,4.03283 0.12884,0 4.95492,-5.28316 10.72463,-11.7403 7.05426,-7.89476 12.82009,-14.07745 17.60303,-18.87567 3.91199,-3.92448 7.25025,-7.21009 7.41836,-7.30136 0.20744,-0.11261 0.24986,0.10078 0.13199,0.66376 -0.0955,0.45634 -0.52692,3.40592 -0.95862,6.55464 l -0.78491,5.72492 -9.43327,12.27956 -9.43322,12.27955 -5.97351,3.71625 c -3.28543,2.04405 -6.03909,3.87352 -6.11924,4.06554 -0.46455,1.11336 -6.955,26.24399 -6.78784,26.28213 0.11132,0.0256 7.28108,1.60648 15.9328,3.51356 l 15.7304,3.46723 0.17246,-8.07684 c 0.17115,-8.01614 0.1807,-8.11374 1.26919,-12.97206 z m 168.01601,-15.84918 c -0.66314,-3.46713 -1.94539,-10.52283 -2.84945,-15.67942 -1.30032,-7.41675 -2.28666,-11.91274 -4.72097,-21.51907 -1.69248,-6.6789 -3.11499,-12.12255 -3.16113,-12.09699 -0.0462,0.0255 -1.49379,2.95124 -3.21697,6.50151 -3.04726,6.27835 -3.16154,6.46895 -4.17574,6.96375 -1.46479,0.71464 -3.6577,1.34431 -5.73732,1.64744 -2.31979,0.33815 -7.17899,0.33735 -10.14229,-0.002 -9.29802,-1.06364 -20.67295,-4.68276 -34.31477,-10.91777 -1.7221,-0.78709 -3.18593,-1.40069 -3.25296,-1.36355 -0.067,0.0371 4.1542,2.85243 9.38062,6.2562 9.37676,6.10679 9.60717,6.27477 17.41032,12.69353 4.34926,3.57767 7.90777,6.60144 7.90777,6.71948 0,0.11804 -0.68848,1.48571 -1.52996,3.03923 l -1.52991,2.8246 -4.12808,2.24019 c -2.27045,1.23211 -6.63937,3.86008 -9.70874,5.83997 -3.51678,2.26846 -6.43844,3.98341 -7.90007,4.63708 -1.2757,0.57053 -2.74489,1.23834 -3.26486,1.48408 l -0.94544,0.44668 1.03021,0.80242 1.0302,0.80253 7.4059,0.78694 c 4.07321,0.43274 8.68678,0.8663 10.25233,0.96328 1.56555,0.0974 12.82401,1.01874 25.01882,2.04804 21.6686,1.82906 22.17437,1.86382 22.26027,1.52837 0.0484,-0.18874 -0.45464,-3.17986 -1.11778,-6.64688 z m -113.67097,-2.04753 c 4.64514,-0.0636 8.54646,-0.17049 8.66961,-0.23867 0.12314,-0.0687 -1.82878,-5.14445 -4.33761,-11.28047 -2.50883,-6.13606 -5.70921,-14.21807 -7.11197,-17.96002 -1.40276,-3.74193 -2.97903,-7.94229 -3.50284,-9.33411 -0.52599,-1.39759 -1.09894,-2.53059 -1.27977,-2.53059 -0.18004,0 -1.57396,0.33603 -3.09763,0.74673 l -2.77029,0.74673 -10.16681,0 c -7.63655,0 -10.16684,0.0489 -10.16684,0.19666 0,0.31816 -5.35993,22.90804 -6.01673,25.35809 -0.65002,2.42468 -0.75455,2.87053 -2.2182,9.45855 -0.53733,2.41865 -0.96046,4.40846 -0.94032,4.422 0.20119,0.13512 25.80309,0.65653 29.54987,0.60179 2.71911,-0.04 8.74438,-0.12364 13.38953,-0.18669 z m -92.49095,-0.87798 c -7.61409,-2.53953 -13.52764,-5.61277 -18.40167,-9.56343 l -1.47134,-1.19262 2.19417,-2.94872 c 8.50073,-11.42391 8.22466,-11.09394 14.26746,-17.05362 3.15432,-3.11093 7.40902,-6.76837 19.44004,-16.71113 l 15.40193,-12.72858 -1.25832,-0.53588 c -0.69207,-0.29476 -1.41472,-0.6003 -1.60588,-0.67901 -0.23538,-0.0969 -6.47265,3.59475 -19.32591,11.43851 -29.65776,18.09876 -32.04037,19.54506 -32.27671,19.59289 -0.1221,0.0247 -3.14366,-1.53012 -6.7146,-3.45514 l -6.49258,-3.50003 -0.72186,0.88306 c -0.39704,0.48567 -1.52067,1.81646 -2.49697,2.9573 -0.97627,1.14084 -3.38437,4.48234 -5.35127,7.42556 -1.9669,2.94322 -3.68265,5.35142 -3.81278,5.35157 -0.13013,1.3e-4 -3.22233,-1.52927 -6.87158,-3.39867 -3.64926,-1.86942 -6.67612,-3.37614 -6.7264,-3.3483 -0.0975,0.0539 0.83998,26.38219 0.94191,26.45303 0.0666,0.0461 33.9828,0.75055 50.04636,1.03915 5.60301,0.10047 10.38955,0.20729 10.63674,0.23702 1.39251,0.16711 1.60674,0.0728 0.59926,-0.26296 z m -50.05584,-27.73201 2.52864,-1.454 3.93263,-15.52513 3.93263,-15.52513 -1.71827,-10.73283 c -0.94502,-5.90308 -1.8145,-11.81561 -1.93217,-13.13899 -0.11766,-1.32337 -0.31479,-2.55547 -0.43805,-2.738 -0.12476,-0.18476 -4.78918,-2.02061 -10.5216,-4.14115 L 453.68319,833.99825 440.2,831.53807 c -9.35885,-1.70763 -22.19017,-3.83487 -41.94772,-6.95426 -36.6076,-5.77975 -35.78986,-5.60968 -56.13229,-11.67555 l -14.48418,-4.31901 -17.18578,-7.63051 c -14.74698,-6.54765 -17.9251,-8.04533 -17.07239,-8.04533 0.0795,0 10.04153,3.69342 22.13794,8.20762 12.09643,4.5142 22.44719,8.32084 23.0017,8.4592 0.5545,0.13837 9.45991,2.11559 19.78975,4.39383 10.32986,2.27824 19.195,4.26065 19.70029,4.40535 0.50529,0.14472 2.43563,0.52774 4.28967,0.85115 7.3691,1.28543 50.89027,8.46054 63.29629,10.4353 7.25096,1.15419 13.45322,2.20062 13.78282,2.3254 0.32958,0.12477 3.97005,1.8641 8.08991,3.86517 4.11987,2.00107 7.50982,3.6304 7.53322,3.62073 0.0234,-0.009 -1.41161,-4.08727 -3.18887,-9.06132 l -3.23145,-9.04372 -3.90455,-5.57589 c -3.62452,-5.17601 -4.53772,-6.27716 -12.7338,-15.35445 l -8.82924,-9.77858 -7.0975,-4.89022 c -6.9072,-4.75912 -7.37193,-5.03746 -17.33584,-10.38286 -9.42272,-5.05507 -11.1574,-5.90036 -21.77401,-10.61035 -17.70782,-7.85593 -24.32562,-10.83968 -39.02464,-17.59494 -11.97586,-5.50379 -15.96919,-7.47591 -34.18556,-16.88282 l -20.62573,-10.65109 -7.38115,-5.80239 c -4.51956,-3.55289 -12.42341,-10.17917 -20.38713,-17.09181 -16.97412,-14.73386 -17.86736,-15.68549 -30.61152,-32.61271 -6.11331,-8.11991 -11.13604,-15.84617 -15.58806,-23.97847 -2.30004,-4.20139 -4.18189,-7.73091 -4.18189,-7.8434 0,-0.11249 0.10115,-0.20446 0.22473,-0.20435 0.12359,1.3e-4 5.41471,6.66468 11.75804,14.81014 6.34332,8.14547 13.49869,17.05014 15.90081,19.78815 2.40212,2.73801 6.44396,7.36773 8.98187,10.28827 4.38079,5.0413 4.90896,5.55788 10.43426,10.20531 9.27494,7.80136 19.93746,16.92792 21.82451,18.68064 1.92213,1.78533 5.7057,4.34654 21.18594,14.34142 l 10.40893,6.72056 22.2089,11.4962 c 21.57254,11.1668 22.46999,11.60805 31.32228,15.39999 5.01236,2.14708 9.1701,3.87238 9.2394,3.834 0.0694,-0.0383 -6.69043,-4.43782 -15.02166,-9.77651 -13.308,-8.52783 -16.31353,-10.56099 -24.74682,-16.74068 l -9.59914,-7.03398 -10.48725,-9.62452 c -7.341,-6.73709 -11.77389,-10.61486 -14.776,-12.92563 l -4.28876,-3.3011 -11.39606,-13.62476 c -9.74829,-11.65471 -12.47825,-15.10039 -18.88027,-23.83008 -6.01323,-8.19956 -7.8495,-10.89019 -9.34292,-13.69004 -1.52361,-2.85646 -8.31239,-15.4178 -9.32697,-17.25776 -0.15097,-0.2738 -2.16302,-5.02501 -4.4712,-10.55824 -3.2501,-7.79122 -5.00114,-12.46988 -7.76309,-20.7425 l -3.56638,-10.68207 -1.83865,-9.45858 c -1.55232,-7.98559 -5.34285,-26.27481 -5.82309,-28.09627 -0.0974,-0.36913 -0.0319,-0.52936 0.19869,-0.48679 0.52579,0.0971 6.96468,20.69364 10.55708,33.76977 l 3.1573,11.4924 4.60348,11.07543 c 2.78137,6.69163 6.98222,16.1 10.61324,23.76982 3.30537,6.98192 6.54508,13.85184 7.19938,15.26647 1.0494,2.2689 2.53385,4.62308 4.23776,6.72058 0.29656,0.36506 4.40741,5.96553 9.13523,12.44548 8.32825,11.4147 8.8739,12.09967 17.51585,21.98705 l 8.91986,10.20531 11.13145,10.19403 c 6.12233,5.6067 11.13149,10.12364 11.13149,10.0376 0,-0.086 -3.85275,-6.2788 -8.56168,-13.76173 l -8.56168,-13.60532 -5.51559,-15.59836 -5.51556,-15.59834 -1.15922,-11.28393 -1.15923,-11.28392 0.69861,-8.37996 c 0.69448,-8.33084 0.71096,-8.43396 2.81188,-17.58963 3.36681,-14.67241 4.61926,-18.59839 9.55516,-29.95217 3.75444,-8.63614 4.73793,-10.62142 9.57695,-19.332 2.96607,-5.33912 7.88348,-13.96385 10.92759,-19.16606 5.02577,-8.58881 6.25592,-10.47332 13.37744,-20.49359 l 7.84272,-11.035 9.75944,-10.62016 c 8.98826,-9.78099 10.61017,-11.41999 20.52605,-20.74249 l 10.7666,-10.12234 13.81839,-10.20531 13.81838,-10.2053 6.74687,-3.77514 c 3.71078,-2.07632 6.85188,-3.77513 6.98021,-3.77513 0.12834,0 0.23336,0.076 0.23336,0.16881 0,0.26301 -11.99927,9.67672 -24.21004,18.99335 l -11.08678,8.45904 -18.27752,17.92541 -18.27752,17.92542 -10.99824,14.10489 -10.99825,14.1049 -5.23064,8.5459 c -4.96955,8.11931 -5.60982,9.32044 -12.82636,24.06129 l -7.59571,15.51539 -2.26703,8.5746 -2.26701,8.57462 2.23324,8.64027 2.23324,8.64029 4.14548,6.44714 4.14548,6.44715 7.15187,5.12856 c 3.93357,2.82069 7.45262,5.33125 7.82018,5.57901 l 0.66825,0.45048 1.04495,-1.21861 c 0.97828,-1.14087 1.16102,-1.76417 0.70955,-2.42035 -0.0942,-0.13691 -0.67309,-1.66015 -1.28649,-3.385 l -1.11523,-3.13609 0.81861,-5.07793 c 0.70972,-4.4026 1.19353,-6.28071 3.63767,-14.12167 1.55051,-4.97406 3.71148,-11.24659 4.80215,-13.93896 1.95491,-4.82583 2.06404,-5.02109 7.69722,-13.77302 l 5.71418,-8.87779 14.37466,-12.1645 c 11.2889,-9.5532 14.47879,-12.14218 14.85973,-12.06048 0.26679,0.0572 1.12552,0.18627 1.90829,0.28681 0.78278,0.10057 1.42323,0.24499 1.42323,0.32101 0,0.12173 -7.00312,6.15157 -21.39886,18.42494 l -4.42023,3.76853 -6.07739,9.34073 c -8.14592,12.51993 -10.88562,16.7982 -10.79536,16.85794 0.12383,0.0819 8.79286,-2.9891 16.3247,-5.78313 32.07599,-11.89895 59.86263,-24.944 77.92676,-36.58436 2.40671,-1.55088 3.13283,-2.23044 11.3858,-10.65589 4.84832,-4.94964 8.9082,-9.00065 9.02198,-9.00224 0.41381,-0.006 6.23513,2.54149 6.23513,2.72831 0,0.10574 -3.62225,5.00427 -8.04947,10.88564 -7.26825,9.65561 -9.54022,12.44068 -23.41066,28.69787 -8.44866,9.90246 -16.07694,18.84455 -16.95177,19.87131 -0.87478,1.02674 -1.51326,1.86681 -1.41879,1.86681 0.0944,0 0.59215,-0.14153 1.10601,-0.31455 0.51383,-0.17299 7.40174,-2.27095 15.30649,-4.66212 l 14.37225,-4.34755 20.68406,-11.30915 20.68407,-11.30913 3.2647,-2.73847 c 1.7956,-1.50616 8.52602,-7.21886 14.95648,-12.69488 l 11.6918,-9.9564 6.99903,-8.95682 c 3.84948,-4.92626 7.12485,-9.0265 7.27856,-9.11163 0.26236,-0.14529 5.42144,-0.45525 5.65552,-0.33979 0.0594,0.0293 -2.60841,6.24412 -5.92857,13.81065 l -6.03667,13.75735 -7.80251,9.35908 c -7.37675,8.84838 -8.40926,9.97481 -18.92214,20.64299 l -11.11962,11.28392 -12.83385,8.91511 c -7.0586,4.9033 -12.91277,9.02899 -13.00919,9.16818 -0.10883,0.15705 -0.007,0.25308 0.27119,0.25308 0.24561,0 0.51156,0.13764 0.59099,0.30589 0.10787,0.22849 1.31087,0.51922 4.75406,1.14895 16.80779,3.07396 31.8586,3.45182 44.50794,1.11743 5.32298,-0.98234 9.13172,-2.19796 15.83185,-5.05303 3.29347,-1.40344 3.68921,-1.63164 4.71666,-2.71995 1.79611,-1.9025 4.81686,-3.99917 9.49733,-6.59196 5.05901,-2.8025 8.93614,-4.5726 14.83073,-6.7709 7.62118,-2.84223 14.87643,-4.50209 19.67851,-4.50209 1.29991,0 2.35693,0.056 2.34889,0.12446 -0.008,0.0685 -3.88447,1.69026 -8.61425,3.60401 -19.39337,7.84689 -37.10777,15.08842 -37.77977,15.44414 -0.98664,0.52224 -1.23434,1.89732 -0.48127,2.67178 0.56148,0.57738 2.50944,1.22127 3.6948,1.22127 1.80755,0 13.42578,-2.45171 19.6744,-4.15174 10.12816,-2.75552 14.15601,-4.40912 21.89714,-8.98978 3.28249,-1.94234 9.22796,-5.44416 13.21218,-7.78184 l 7.24404,-4.25029 2.98027,-3.05302 c 4.04205,-4.14069 14.31486,-14.94528 16.15568,-16.99197 1.28726,-1.43125 1.6668,-2.10429 2.76034,-4.89523 1.63995,-4.18536 7.82314,-19.274 9.20175,-22.45476 0.69086,-1.59392 1.18701,-2.43374 1.41035,-2.38723 0.18948,0.0395 1.38949,0.20759 2.66665,0.37359 1.27716,0.16603 2.3221,0.35896 2.3221,0.42874 0,0.0698 -1.68015,5.2646 -3.73364,11.54398 -3.19172,9.75986 -3.88964,12.21134 -4.8082,16.88904 l -1.07455,5.47197 -6.39896,9.96045 c -6.2583,9.7415 -6.52545,10.11181 -12.15388,16.84695 -12.33187,14.75669 -17.69918,21.28148 -17.56657,21.35492 0.31579,0.1749 8.20526,-1.9211 13.25633,-3.5218 4.09685,-1.29832 10.86008,-3.81123 13.84305,-5.14344 5.57596,-2.49029 10.96322,-5.73712 13.52432,-8.15098 0.56661,-0.53404 5.21385,-4.40595 10.32714,-8.60423 7.70148,-6.32329 9.44464,-7.86105 10.15782,-8.96076 0.47352,-0.73013 4.21799,-6.6293 8.32111,-13.10925 l 7.46016,-11.78174 0.7964,-12.52847 0.79644,-12.52847 -2.17172,-11.78173 -2.17173,-11.78173 -2.94737,-5.47602 c -2.97049,-5.51901 -5.44307,-10.24226 -5.7931,-11.06632 -0.10418,-0.24539 -0.0551,-0.49218 0.10919,-0.54842 0.16428,-0.0562 2.04681,0.13191 4.18336,0.41809 2.81789,0.37744 3.92655,0.59639 4.03723,0.79733 0.0839,0.15233 2.30703,5.96351 4.94027,12.91372 l 4.78767,12.63674 0.78317,7.11011 c 1.07931,9.79871 1.01771,9.51324 3.2351,14.99227 1.08961,2.69237 3.39102,8.51686 5.11423,12.94331 l 3.1331,8.04809 6.76546,12.33483 6.76548,12.33484 3.82201,11.42214 c 2.10209,6.28218 3.85139,11.40591 3.88734,11.38604 0.0359,-0.0199 2.08142,-5.33403 4.54555,-11.80929 l 4.4802,-11.77321 0.14409,-9.95639 c 0.13825,-9.55246 0.10942,-10.2661 -0.71036,-17.58963 l -0.85444,-7.63324 -4.66938,-11.67928 c -2.56816,-6.42359 -4.60218,-11.7165 -4.52005,-11.76198 0.0821,-0.0455 1.06427,-0.11808 2.18251,-0.1613 l 2.03318,-0.0785 5.02833,7.6091 5.02831,7.60908 2.48836,11.28392 2.48841,11.28392 9.30415,10.29256 c 7.02864,7.77525 11.40978,12.36131 17.91344,18.75122 16.23946,15.95537 22.08857,21.5696 23.7669,22.81245 2.00674,1.4861 15.3937,11.89226 21.9225,17.04117 2.55433,2.01445 4.67409,3.64858 4.71058,3.63138 0.0365,-0.0172 -2.40917,-10.59336 -5.43483,-23.50263 l -5.50124,-23.4714 -7.81363,-14.3538 c -4.53487,-8.33067 -9.76836,-18.38447 -12.47199,-23.95929 l -4.65835,-9.6055 -11.50224,-17.44272 -11.50225,-17.44273 -24.91029,-26.3644 c -13.70067,-14.50043 -24.87117,-26.42351 -24.82335,-26.49571 0.0478,-0.0722 1.5674,0.29213 3.37681,0.80965 l 3.28985,0.94096 21.27954,20.60138 21.27954,20.6014 14.29156,19.72201 14.29156,19.72203 10.4735,20.90843 10.47349,20.90844 6.90345,22.07 6.90342,22.07002 1.48727,11.11797 1.48722,11.11798 -0.24488,18.58528 -0.24488,18.58527 -5.69731,18.66825 -5.69729,18.66825 L 799.50161,738.9 c -6.34213,9.58303 -16.8708,25.4856 -23.397,35.33907 -6.52619,9.85344 -11.82401,17.98487 -11.77287,18.06981 0.0511,0.085 1.50224,-1.06822 3.22467,-2.56261 1.72246,-1.49437 3.86917,-3.20392 4.77051,-3.79898 12.87633,-8.501 28.28547,-18.32219 40.87446,-26.05175 l 15.54685,-9.54568 15.57687,-11.09652 c 8.56728,-6.1031 17.20688,-12.22628 19.19913,-13.60708 4.1815,-2.89816 2.9341,-1.69379 21.19322,-20.46214 7.44234,-7.6499 14.77981,-15.17833 16.30554,-16.72986 2.76735,-2.81422 2.78661,-2.84209 8.03409,-11.61581 2.89304,-4.83715 7.23583,-12.14512 9.65065,-16.23998 2.4148,-4.09483 4.50126,-7.38044 4.63653,-7.30135 0.13531,0.0792 1.06057,1.21377 2.05611,2.52149 l 1.81012,2.37771 -9.98894,16.45648 -9.98893,16.45649 -19.31428,18.79244 -19.31427,18.79242 -25.33378,16.80169 c -19.47501,12.91609 -31.9405,20.97442 -53.90178,34.84487 l -28.56804,18.04318 -3.37665,4.77357 c -3.28562,4.6449 -4.8037,7.17164 -14.1839,23.60774 -2.47411,4.33518 -5.08677,8.89024 -5.80587,10.12233 -0.71911,1.23211 -1.64807,2.98692 -2.06434,3.8996 -5.20444,11.41077 -4.36747,29.37902 2.36528,50.77762 1.15854,3.68219 3.28064,9.50864 3.50935,9.63532 0.0467,0.0259 1.49972,-0.4051 3.22878,-0.95777 1.72908,-0.55268 6.31233,-1.95356 10.18499,-3.11307 l 7.04124,-2.10823 13.633,-2.29015 c 11.4094,-1.91663 17.47749,-3.06918 37.20353,-7.06636 l 23.57049,-4.77618 10.28732,-3.30442 c 5.658,-1.81742 14.2396,-4.45487 19.07018,-5.86097 l 8.78289,-2.55659 4.70031,-2.39399 c 20.1953,-10.28599 33.36863,-16.93976 36.16109,-18.26474 1.81274,-0.86013 4.50938,-2.1708 5.99254,-2.91259 1.48314,-0.74183 5.32585,-2.51642 8.53935,-3.94357 3.21349,-1.42714 6.11029,-2.80282 6.43732,-3.05708 0.32705,-0.25425 6.68561,-4.5819 14.1301,-9.61698 l 13.53545,-9.15471 3.05727,-3.78861 c 8.78607,-10.8879 16.30388,-20.08917 16.65933,-20.38987 0.40581,-0.34331 1.51644,-2.4161 7.15358,-13.35089 l 3.12242,-6.05681 2.264,-9.37561 2.26398,-9.37561 -1.31434,-15.34944 c -0.72289,-8.4422 -1.2569,-15.38463 -1.1867,-15.42761 0.4506,-0.27592 0.37018,-0.58593 10.60764,40.89939 1.9594,7.94023 3.7574,14.99682 3.9954,15.68133 0.9244,2.65789 1.1609,6.72561 0.9782,16.82599 -0.1781,9.84945 -0.2669,11.2802 -1.4241,22.94204 -0.3455,3.48213 -0.5834,6.48681 -0.5286,6.67708 0.063,0.22054 3.2103,-2.91657 8.6812,-8.6543 l 8.5816,-9.00023 6.6689,-19.332 6.6688,-19.33202 -0.6526,-3.48473 c -0.8311,-4.43863 -2.4059,-10.9371 -3.9607,-16.34508 -6.8174,-23.71216 -17.0123,-42.62332 -28.8244,-53.46833 -1.6067,-1.47511 -5.3558,-5.79371 -12.46093,-14.3538 -5.58953,-6.73415 -14.07417,-16.61227 -18.85472,-21.95139 -4.78057,-5.33912 -14.71397,-16.50273 -22.07424,-24.80803 -27.87581,-31.45496 -30.55355,-34.4517 -30.64631,-34.29759 -0.0524,0.087 5.3646,9.55708 12.03776,21.04454 l 12.133,20.88629 10.02448,21.5722 10.02449,21.57219 4.51567,12.69441 4.51567,12.69441 2.05967,19.24903 2.05963,19.24903 -1.1056,14.94862 -1.10558,14.94862 -5.34522,5.21309 c -2.93988,2.86718 -5.52341,5.32242 -5.74115,5.45607 -0.34568,0.21214 -0.39592,0.20867 -0.39592,-0.0274 0,-0.1487 0.86825,-2.9836 1.92944,-6.29979 1.06121,-3.31619 2.69979,-8.49364 3.64127,-11.50546 l 1.7118,-5.47601 -0.61981,-19.16606 -0.61981,-19.16607 -4.97679,-19.30253 -4.9768,-19.30255 -12.55909,-26.91173 -12.55908,-26.91174 -12.30588,-22.31893 c -8.8724,-16.09166 -14.24854,-25.51358 -19.26848,-33.76877 -4.98878,-8.20401 -6.98079,-11.28522 -7.02688,-10.86907 -0.0353,0.31943 -0.27778,4.98649 -0.5387,10.37124 -0.26091,5.38476 -0.65581,13.44944 -0.87757,17.92152 l -0.40314,8.13106 -7.51503,19.66388 -7.51505,19.66389 -12.70117,18.66824 c -6.98568,10.26754 -13.87473,20.38572 -15.30901,22.48487 -2.11018,3.08834 -4.21179,5.62358 -11.01392,13.28635 l -8.40614,9.46973 -5.40364,1.94004 c -2.972,1.06701 -5.45719,1.91035 -5.52269,1.87408 -0.0655,-0.0363 6.90501,-8.67509 15.48998,-19.1974 l 15.60904,-19.13146 6.73819,-11.12073 6.73818,-11.12072 9.00138,-19.00892 9.00136,-19.00892 1.7843,-19.82982 1.78433,-19.82983 2.57291,-6.35006 c 1.4151,-3.49254 2.50781,-6.47946 2.42822,-6.63761 -0.0796,-0.15814 -4.62261,-6.89608 -10.09556,-14.9732 l -9.95084,-14.68569 -12.00714,-13.10926 c -14.21381,-15.5184 -15.28311,-16.65766 -29.04787,-30.9478 -5.84614,-6.06925 -11.55387,-12.00575 -12.68388,-13.19222 -1.94374,-2.04087 -11.04742,-9.38846 -12.49018,-10.08086 -0.48165,-0.23113 -1.16635,-0.29039 -3.35543,-0.29039 -9.31826,0 -14.45839,3.0415 -15.78633,9.34103 -0.45606,2.16336 -0.18823,6.29371 0.59403,9.16127 1.09035,3.99688 3.56406,9.60922 4.39517,9.97171 0.35359,0.15423 0.35104,0.22851 -0.0171,0.49783 -0.29327,0.21462 -0.43563,0.24315 -0.4421,0.0886 -0.0141,-0.33342 -2.90845,-0.16671 -4.38114,0.25232 -1.62295,0.46179 -2.96801,1.73797 -3.44181,3.26557 -1.18071,3.80676 3.23977,12.89152 10.19994,20.96248 2.12723,2.46671 3.0505,3.22344 5.77153,4.73039 5.13831,2.84572 11.95559,4.95192 16.0282,4.95192 1.57133,0 3.41221,-0.48725 4.2176,-1.11635 2.27423,-1.77638 2.08402,-5.82993 -0.52794,-11.25036 -0.5153,-1.06935 -0.87566,-1.97818 -0.80081,-2.01964 0.0748,-0.0414 1.32821,0.57284 2.78524,1.3651 7.691,4.18191 17.53808,7.75042 23.36959,8.46894 2.9079,0.35827 4.85553,0.23919 6.74908,-0.41272 1.40501,-0.48371 2.22751,-0.46498 1.21266,0.0276 -1.02189,0.49599 -2.514,0.80394 -4.35733,0.89927 -5.82825,0.30142 -15.05689,-2.48607 -25.64729,-7.7467 -2.326,-1.1554 -3.06763,-1.4473 -2.91377,-1.14676 2.05088,4.00612 2.83806,8.17764 1.96743,10.42592 -0.67565,1.74479 -3.04936,2.82667 -6.21776,2.83391 -5.02347,0.0115 -13.72562,-2.97182 -18.63434,-6.3883 -2.61155,-1.81761 -6.69411,-6.8777 -10.03863,-12.44223 -5.61533,-9.34269 -5.26421,-14.82423 1.0243,-15.99029 0.56018,-0.10389 1.47029,-0.18886 2.02248,-0.18886 0.55221,0 1.00399,-0.0455 1.00399,-0.10118 0,-0.0557 -0.46014,-1.04509 -1.02256,-2.19871 -2.61014,-5.35399 -3.59421,-9.12595 -3.5993,-13.79625 -0.004,-4.26345 0.50619,-5.92427 2.53676,-8.24765 2.70374,-3.09351 7.04233,-4.52972 13.68377,-4.52972 1.53091,0 2.7835,-0.0395 2.7835,-0.0877 0,-0.0482 -3.54656,-2.82977 -7.88126,-6.18126 -4.3347,-3.3515 -9.34839,-7.25106 -11.14153,-8.6657 -1.79314,-1.41464 -7.21492,-5.45428 -12.0484,-8.97698 l -8.78818,-6.4049 -18.89282,-9.11047 c -10.39105,-5.01077 -19.5866,-9.37239 -20.43454,-9.69249 -1.72792,-0.65229 -2.91097,-1.50785 -2.91097,-2.10518 0,-0.33752 -0.38262,-0.49534 -2.52153,-1.04003 -1.68114,-0.42811 -3.59791,-1.12522 -5.751,-2.09155 -16.02625,-7.19289 -34.54836,-12.96531 -52.40185,-16.33106 -8.38224,-1.58023 -17.21663,-2.77596 -23.46915,-3.17655 -1.5939,-0.10211 -3.7744,-0.35489 -4.84557,-0.56174 -3.20319,-0.61853 -6.1398,-0.8036 -11.02356,-0.69471 -8.53897,0.19038 -18.8286,1.81784 -30.32491,4.79634 -2.76232,0.71566 -2.97608,0.81271 -7.23119,3.2827 l -4.38471,2.54525 -6.10222,1.54679 -6.10219,1.54679 3.4457,0.003 c 5.80626,0.004 14.76557,0.4267 21.53218,1.01453 17.45365,1.51624 30.86382,4.58314 39.44183,9.02034 1.15356,0.5967 2.23223,1.08566 2.39702,1.08659 1.37427,0.007 7.17933,2.05963 12.42951,4.3936 7.10357,3.15791 12.00699,6.03285 12.09475,7.09139 0.085,1.02446 -0.88233,0.81543 -5.23301,-1.13083 -23.29313,-10.42013 -45.21869,-16.54461 -63.77796,-17.81516 -3.6621,-0.2507 -10.7817,-0.20864 -14.0903,0.0832 -1.56554,0.13812 -3.52061,0.29341 -4.34458,0.34509 l -1.49813,0.094 -1.94758,-1.77581 c -1.07117,-0.9767 -2.17714,-1.8244 -2.45775,-1.88377 -0.40443,-0.0856 1.00354,-1.0535 6.79406,-4.67054 l 7.30424,-4.56259 5.53366,-6.80354 5.53365,-6.80354 1.83545,-9.87343 c 1.00951,-5.43038 2.04046,-10.7695 2.29101,-11.8647 0.74688,-3.26449 0.9097,-9.86007 0.30786,-12.47091 -0.91877,-3.98582 -2.8756,-7.05958 -5.55849,-8.73116 -1.86867,-1.16426 -2.27794,-1.2463 -3.36945,-0.6754 -2.83599,1.48337 -8.97064,7.5024 -18.49235,18.14382 l -5.12256,5.72493 -4.36224,7.38433 c -2.39924,4.06138 -5.84787,10.14723 -7.66364,13.5241 l -3.3014,6.13978 -1.29772,6.30572 c -1.15038,5.5897 -1.47326,6.71084 -2.84349,9.87342 l -1.54577,3.56772 0.49049,1.32751 0.49046,1.32752 -5.53764,2.98832 -5.53764,2.98831 -12.36331,9.70609 -12.36332,9.70609 -7.16329,8.79483 c -3.93982,4.83715 -7.27352,8.85916 -7.4082,8.93782 -0.13711,0.0801 -1.43051,0.0801 -2.93796,0 l -2.69308,-0.14301 9.58047,-11.78173 9.58051,-11.78175 11.04438,-8.5459 11.04439,-8.5459 5.42809,-1.74237 5.4281,-1.74238 -0.19809,-1.6594 c -0.10894,-0.91266 -0.35415,-1.75134 -0.5449,-1.86372 -0.4397,-0.25903 -4.22149,-0.79813 -7.21812,-1.02896 -3.31756,-0.25554 -10.05535,-0.21785 -14.15194,0.0791 -6.743,0.48893 -14.33988,1.60939 -21.51354,3.17306 -6.12497,1.33508 -17.39329,5.06524 -30.4017,10.06391 -5.6797,2.1825 -10.49994,4.005 -10.71166,4.04999 -0.29357,0.0624 -0.38397,-0.22767 -0.38082,-1.22198 0.003,-0.71709 0.0838,-1.46854 0.18133,-1.6699 0.12452,-0.25725 5.89675,-2.48564 19.41305,-7.49447 l 19.23579,-7.12836 14.21596,-2.27326 c 7.81876,-1.2503 14.62043,-2.26589 15.11481,-2.25688 0.49438,0.009 4.20227,0.49509 8.23973,1.08016 4.03748,0.58508 7.37441,1.04672 7.41544,1.02586 0.041,-0.0208 0.2109,-1.59991 0.37755,-3.50902 0.16665,-1.90909 0.43569,-4.02535 0.59788,-4.70277 0.16216,-0.67742 0.26193,-1.24665 0.22167,-1.26494 -0.34803,-0.15813 -2.51036,-0.68735 -4.6581,-1.14001 -5.3002,-1.1171 -12.88394,-1.99809 -21.6324,-2.51304 -6.10517,-0.35935 -21.06993,-0.50491 -25.61922,-0.24918 -8.42993,0.47385 -17.39521,1.64862 -29.21246,3.82788 -14.24535,2.62702 -27.83321,5.83033 -45.84285,10.80739 -15.0797,4.16733 -20.96811,5.99245 -25.76788,7.98673 -4.27121,1.77466 -46.76336,20.11223 -49.2386,21.24901 -1.9693,0.90442 -11.79265,7.22073 -29.70331,19.09888 -8.24506,5.46805 -15.27436,10.13511 -15.62064,10.37124 -0.34631,0.23614 -5.70198,5.00346 -11.90152,10.59405 l -11.2719,10.16471 -8.88319,9.997 c -4.88574,5.49834 -8.9925,10.11293 -9.12613,10.25462 -0.32998,0.34992 1.80903,2.7914 4.20841,4.80354 6.05715,5.07957 14.01727,7.3018 22.10026,6.16979 9.10424,-1.27505 19.24493,-6.50628 29.28204,-15.1056 1.29824,-1.11229 2.46643,-1.96366 2.59596,-1.89192 0.1295,0.0718 -0.0383,0.61447 -0.37276,1.20611 -3.0748,5.43781 -6.26654,16.3906 -6.26133,21.48632 0.004,4.57609 1.85936,7.29283 5.21686,7.64167 4.75756,0.49431 15.03025,-4.74131 26.65708,-13.58614 l 2.21997,-1.68877 0.3576,-2.15722 c 0.52001,-3.13651 0.45139,-8.08424 -0.14268,-10.28827 -1.52573,-5.66071 -5.79427,-8.71295 -12.58267,-8.99727 -2.50424,-0.10488 -5.45887,0.21428 -8.20515,0.88635 l -1.60773,0.39345 0.15002,-0.37274 c 0.0825,-0.205 0.64054,-1.34347 1.24003,-2.52995 4.27196,-8.45471 5.2536,-16.72427 2.56067,-21.5722 -1.02443,-1.84422 -2.85859,-3.6385 -4.84253,-4.73726 -2.11675,-1.1723 -5.71087,-2.21104 -8.62683,-2.49325 -1.07116,-0.10366 -2.25094,-0.21944 -2.62173,-0.25728 -1.27889,-0.13051 -0.67068,-0.35339 0.74906,-0.2745 5.65414,0.31416 10.20639,1.76426 13.05066,4.15722 2.8926,2.43365 4.05598,4.93117 4.3074,9.24704 0.1959,3.36255 -0.12431,5.70332 -1.29391,9.45857 -0.67616,2.17099 -2.97499,7.6164 -3.55012,8.40942 -0.17256,0.23794 0.11686,0.21592 1.99414,-0.15182 1.85013,-0.36239 2.73966,-0.43239 5.64741,-0.44428 3.30932,-0.0136 3.5324,0.008 5.42007,0.52244 2.14419,0.58443 4.4334,1.79388 5.73722,3.03113 1.20717,1.14553 2.52865,3.53755 3.07109,5.55898 0.60908,2.26984 0.67796,7.22095 0.14625,10.50863 l -0.38454,2.37759 -3.89647,2.84953 c -6.84383,5.00494 -13.50759,9.0489 -17.89915,10.86221 -5.13525,2.12038 -9.27602,2.18425 -11.348,0.17505 -1.26434,-1.22604 -1.8641,-2.82382 -2.04564,-5.44972 -0.31566,-4.56498 1.34037,-11.53051 4.59208,-19.31491 0.56793,-1.35961 0.98621,-2.4977 0.92955,-2.52908 -0.0567,-0.0314 -1.17012,0.81966 -2.47434,1.89122 -5.3943,4.43199 -12.55016,8.82331 -17.68264,10.85125 -7.08685,2.80013 -13.92951,3.62575 -20.10431,2.42574 -5.75329,-1.11809 -11.77059,-4.5279 -15.44031,-8.74955 -0.70729,-0.81367 -1.35876,-1.48416 -1.44771,-1.48998 -0.0889,-0.006 -3.76228,4.00311 -8.16299,8.9087 -7.93922,8.85008 -8.03248,8.96634 -12.0218,14.98513 -2.21128,3.33622 -4.69741,7.03584 -5.52473,8.22136 -0.82732,1.18554 -1.90912,3.01095 -2.40401,4.05649 -0.49489,1.04553 -2.53117,5.11191 -4.52509,9.03639 -4.97867,9.79918 -12.73221,27.18498 -17.53899,39.32777 -3.31325,8.36986 -4.22156,10.96984 -5.24642,15.01756 -0.85077,3.36013 -1.52439,5.4156 -2.14807,6.55463 -0.49975,0.91268 -0.98205,1.72686 -1.0718,1.80929 -0.0898,0.0824 -0.52972,-0.57625 -0.97776,-1.46377 l -0.81459,-1.61366 0.70406,-4.72645 0.70405,-4.72644 -3.38654,-3.74823 -3.38652,-3.74824 -7.28237,7.78122 c -5.06818,5.41537 -8.03483,8.38669 -9.75721,9.77253 -1.36117,1.0952 -8.87151,7.77843 -16.68966,14.85162 l -14.21482,12.86034 -7.57324,8.57277 -7.57324,8.57277 2.10926,3.6238 c 1.16008,1.99312 5.21226,9.0003 9.00481,15.57151 9.13442,15.82684 10.39884,17.9909 10.5659,18.08341 0.11824,0.0655 7.71431,-1.4986 7.97254,-1.64163 0.0469,-0.0259 -0.1919,-7.04896 -0.53069,-15.60665 l -0.61599,-15.55941 1.07873,-2.09643 c 6.5497,-12.72908 13.85588,-23.86082 20.65348,-31.46781 5.72113,-6.40233 10.36679,-9.8456 14.95226,-11.08232 3.4442,-0.92889 13.32932,-1.58501 16.51068,-1.09585 1.30445,0.20057 2.57666,0.87565 4.34333,2.30475 3.42874,2.77353 5.10638,5.93444 5.10638,9.62111 0,2.36741 -0.54459,4.20731 -2.08848,7.05585 -0.64305,1.18647 -2.59351,5.15439 -4.33435,8.81762 -3.08764,6.49729 -3.26092,6.96056 -7.07581,18.91715 l -3.91066,12.25675 -1.03102,9.03872 -1.03103,9.03872 1.49174,4.81727 c 1.19307,3.85273 2.03031,7.61768 4.18154,18.80365 1.47939,7.69251 2.78488,14.07705 2.90109,14.18787 0.11623,0.11081 3.79162,3.03905 8.16756,6.5072 l 7.95625,6.30572 22.34771,13.93895 c 18.16781,11.33183 23.24988,14.60626 27.17114,17.50667 l 4.82344,3.56771 2.01858,5.06116 c 1.4129,3.54252 3.49383,7.89931 6.93509,14.51975 3.89783,7.49881 5.61477,11.14768 8.28663,17.61086 l 3.37015,8.15228 13.31864,7.5006 13.31868,7.50062 9.28842,3.94037 c 5.10863,2.1672 15.76035,6.66082 23.6705,9.98581 l 14.38208,6.04542 24.087,8.11664 c 29.44412,9.92185 33.34886,11.4247 44.01287,16.93976 6.94824,3.59343 7.00973,3.63131 15.44063,9.5194 4.65553,3.2514 9.32713,6.5294 10.38131,7.28449 1.05418,0.75508 1.99354,1.35247 2.0875,1.32752 0.094,-0.0249 1.3087,-0.69966 2.69945,-1.49936 z m 35.06905,-12.15308 c 4.14669,-2.82928 8.80237,-6.04021 10.34595,-7.13541 1.82198,-1.29274 5.72974,-3.60017 11.13943,-6.57755 7.95233,-4.37682 8.98293,-4.87633 22.56519,-10.93725 7.82773,-3.49304 14.59594,-6.51751 15.04047,-6.72107 l 0.80818,-0.37009 -19.98429,-10.45788 -19.98431,-10.45787 -15.43077,-6.02066 -15.43077,-6.02063 -7.8652,-0.07 c -4.59704,-0.0409 -7.86519,-0.007 -7.86519,0.0805 0,0.0827 0.88578,2.64906 1.96842,5.70289 l 1.9684,5.55244 1.31224,10.03937 c 1.21355,9.28446 1.34806,10.96889 1.78874,22.40117 l 0.47653,12.36182 2.90953,1.50439 c 1.60024,0.82741 3.47249,1.78346 4.16052,2.12455 l 1.25104,0.62015 13.28085,-7.16267 c 11.79001,-6.35861 14.9635,-7.95687 28.26971,-14.23744 17.5514,-8.28432 15.92653,-7.54399 16.13903,-7.35355 0.0934,0.0838 -6.60246,3.34564 -14.87973,7.24873 -13.06963,6.16288 -16.76345,8.01599 -28.07627,14.08521 -7.16465,3.84377 -13.42366,7.20104 -13.9089,7.46059 l -0.88228,0.47193 -4.81776,-0.99401 c -2.64975,-0.54671 -4.83802,-0.9831 -4.86282,-0.96974 -0.0248,0.0133 -0.20163,0.85029 -0.39293,1.85989 l -0.34781,1.83563 6.66783,3.76609 c 3.66731,2.07136 6.76452,3.70954 6.8827,3.64039 0.11817,-0.0691 3.60759,-2.44056 7.75427,-5.26984 z m 196.90895,4.10545 c 4.80997,-1.31142 7.32359,-4.10294 8.02945,-8.91721 0.31611,-2.15589 0.25678,-2.93641 -0.90202,-11.8652 l -0.65688,-5.06117 -5.17664,-9.1267 c -4.81642,-8.49156 -5.36773,-9.35188 -7.92186,-12.36253 -1.50985,-1.7797 -2.90567,-3.319 -3.10176,-3.42064 -0.19614,-0.1017 -4.78178,-1.32016 -10.19034,-2.7078 -7.14921,-1.83422 -12.66288,-3.40369 -20.19696,-5.74912 -5.69977,-1.77438 -10.42596,-3.19141 -10.50264,-3.14893 -0.13057,0.0723 0.33082,3.83879 0.72567,5.92367 l 0.17735,0.93655 -6.2615,2.88008 c -3.44383,1.58404 -12.35424,5.38161 -19.80093,8.43905 -7.44668,3.05745 -13.54369,5.61343 -13.54893,5.67995 -0.005,0.0665 2.83339,2.09688 6.30813,4.51192 l 6.31768,4.39099 6.04191,2.20023 c 23.74773,8.64797 29.12989,10.67954 31.74267,11.98163 9.05139,4.51081 19.04687,8.21887 25.29929,9.38538 0.98074,0.18296 2.70127,0.4139 3.82337,0.51318 7.89342,0.69836 11.71686,-2.8782 10.67233,-9.98313 -0.6752,-4.59259 -1.48377,-6.64797 -7.79979,-19.8266 -5.53982,-11.55913 -5.03328,-10.42188 -4.66,-10.46181 0.3165,-0.0338 9.84244,19.6258 11.07112,22.84857 2.64891,6.94798 2.8083,12.51658 0.43353,15.14556 -0.74895,0.82912 -2.4743,1.87389 -3.66662,2.22032 -2.27495,0.66093 -6.24464,0.60833 -10.19081,-0.13505 -6.51667,-1.22763 -16.89598,-5.07431 -25.36472,-9.40045 -2.14442,-1.09545 -5.32046,-2.35291 -12.8778,-5.09856 -5.51726,-2.00447 -17.71956,-6.44923 -27.11622,-9.87726 l -17.08485,-6.23278 -2.9299,1.07562 c -1.61145,0.59158 -2.82494,1.12652 -2.69664,1.18876 0.1283,0.0622 4.2108,1.60963 9.07224,3.43867 5.45333,2.05174 15.01378,5.93833 24.95962,10.14682 8.86634,3.75172 18.15561,7.57532 20.64285,8.49689 2.48719,0.92158 5.68238,2.21012 7.10042,2.86344 6.12656,2.8226 14.28644,5.80783 20.2562,7.4106 6.54663,1.75765 10.3506,2.33388 14.99867,2.27202 2.71052,-0.0361 3.21092,-0.0939 4.97531,-0.57496 z m -110.77005,-36.2858 c 4.2796,-1.15579 7.85265,-2.15883 7.9401,-2.22895 0.0875,-0.0701 9.19276,-3.21249 20.234,-6.98299 11.04124,-3.77049 20.23889,-6.93939 20.43922,-7.04199 0.2003,-0.10261 1.57247,-3.13604 3.04923,-6.74097 3.16976,-7.7377 3.19163,-7.79896 2.78485,-7.79896 -0.17066,0 -1.50028,0.14828 -2.95471,0.32951 -1.45438,0.18122 -13.78986,1.19132 -27.41218,2.24465 l -24.76783,1.91515 -25.86906,-3.25255 c -14.22798,-1.78891 -34.16124,-4.29537 -44.29611,-5.56989 -10.13487,-1.27451 -19.1012,-2.39707 -19.92517,-2.49455 -1.59931,-0.1892 -2.48406,-0.47368 -1.4732,-0.47368 0.57552,0 6.60769,0.75061 64.5588,8.03331 l 27.13044,3.40946 24.55515,-1.90618 c 13.50534,-1.04839 25.87855,-2.0625 27.49597,-2.25354 1.61741,-0.19107 3.02859,-0.29874 3.13595,-0.2393 0.14861,0.0823 3.37652,-9.02464 3.24091,-9.14363 -0.0162,-0.0141 -10.27645,0.56771 -22.80085,1.2929 l -22.77163,1.31854 -33.40836,0.21716 -33.40836,0.21714 -7.7903,-0.64327 c -21.02872,-1.73641 -36.50611,-2.95673 -36.63004,-2.8881 -0.0757,0.0419 1.84124,1.92892 4.25982,4.19334 l 4.39747,4.11711 12.01111,4.89522 c 23.33252,9.50936 27.82758,11.43497 42.5423,18.22447 l 14.86229,6.85759 3.5142,3.03872 3.5142,3.03872 3.03036,-0.79149 c 1.66667,-0.43531 6.53183,-1.73714 10.81143,-2.89295 z m 139.18576,-8.57383 c 0,-0.10006 1.35989,-4.37506 3.02195,-9.50007 l 3.02194,-9.31819 5.69923,-9.62451 c 4.03653,-6.81661 7.48665,-12.23214 11.82575,-18.5625 3.36957,-4.91589 6.05909,-8.97531 5.97668,-9.02094 -0.64285,-0.35604 -4.56337,0.72783 -20.54042,5.67861 l -17.24486,5.34363 -20.3746,3.99335 c -18.20708,3.56851 -21.554,4.16976 -31.4608,5.65168 -6.0974,0.9121 -12.16484,1.78368 -13.4832,1.93683 -1.31836,0.15317 -2.63296,0.31446 -2.92136,0.35842 -0.48689,0.0742 -0.52435,0.50321 -0.52435,6.0062 l 0,5.92626 2.27001,0.62207 2.27,0.62208 18.07084,-6.80648 c 9.93897,-3.74356 18.28828,-6.85267 18.55405,-6.90914 0.26576,-0.0565 0.48321,-0.033 0.48321,0.0521 0,0.0851 -7.39949,3.47205 -16.4433,7.52654 -9.04381,4.05447 -16.35845,7.41788 -16.25474,7.47421 0.10364,0.0564 8.11376,2.57169 17.80012,5.58966 l 17.61157,5.48724 16.531,-10.19451 c 9.09208,-5.60696 16.71423,-10.19449 16.93811,-10.19449 0.51458,0 2.02391,-1.26969 -13.18885,11.09475 -7.22712,5.87394 -13.06597,10.721 -12.97527,10.77122 0.26988,0.14947 24.55524,6.14385 24.96276,6.16159 0.20599,0.009 0.37453,-0.0655 0.37453,-0.16557 z M 600.50023,816.13866 c 20.59932,-0.72515 39.20615,-1.3887 41.34847,-1.47455 l 3.89515,-0.15611 13.93264,-2.60551 c 7.66295,-1.43305 14.27882,-2.62981 14.70193,-2.65947 0.71292,-0.05 9.77544,-1.83764 35.99533,-7.10027 l 10.3975,-2.0869 8.7786,-3.21098 c 9.67909,-3.54034 25.32124,-9.17363 26.80232,-9.65249 1.28073,-0.41407 4.23337,-3.97314 9.84628,-11.8686 1.26517,-1.77971 5.10498,-7.00682 8.53285,-11.6158 l 6.23253,-8.37997 10.67192,-18.39449 10.67196,-18.39448 5.84775,-15.29133 5.84774,-15.29132 1.64979,-8.21403 1.64974,-8.21402 -0.32846,-13.51878 c -0.18063,-7.43534 -0.43619,-13.59586 -0.56782,-13.69005 -0.13165,-0.0942 -5.20388,-3.71823 -11.27162,-8.05341 -9.91578,-7.08448 -11.68321,-8.44472 -17.46487,-13.44114 -13.03247,-11.26246 -15.62334,-13.59247 -18.63639,-16.75993 -1.69292,-1.77971 -8.70346,-9.09767 -15.57899,-16.26212 -6.8755,-7.16446 -13.01536,-13.58633 -13.64415,-14.27084 l -1.14326,-1.24454 -2.3302,10.28827 -2.33023,10.28828 -2.1088,3.35338 c -1.15986,1.84436 -2.10883,3.38421 -2.10883,3.42188 0,0.0376 0.70786,0.11959 1.57304,0.18206 2.38619,0.17227 7.41783,1.15749 10.7441,2.10375 9.44983,2.68827 20.40337,7.98363 30.685,14.83429 9.96439,6.63926 19.90315,15.39648 19.91579,17.54814 0.005,0.8989 -0.59279,0.79251 -2.06086,-0.36658 -1.84899,-1.45983 -6.83826,-4.89383 -11.22078,-7.72299 -17.85337,-11.52538 -34.93951,-19.58118 -47.34271,-22.32119 -1.29283,-0.2856 -2.39689,-0.49365 -2.45346,-0.46232 -0.0566,0.0314 -0.35275,1.06824 -0.65816,2.30426 l -0.5553,2.24729 2.27072,0.44545 c 3.24268,0.63612 11.24076,2.84354 15.76246,4.35033 8.23263,2.74344 13.98306,5.24537 20.94417,9.11254 8.20057,4.55569 13.63639,8.69968 18.45957,14.07261 1.24842,1.39071 1.73487,1.78344 2.2072,1.78196 0.33321,-0.002 4.1789,-0.18687 8.54596,-0.41295 4.36704,-0.22608 8.10863,-0.41191 8.31463,-0.41296 0.59581,-0.003 0.44696,1.138 -0.25292,1.93869 -1.72072,1.96858 -8.2506,3.52364 -13.96691,3.32612 -2.25747,-0.078 -2.50332,-0.0584 -2.32831,0.1855 0.10766,0.15 1.41313,2.10222 2.90123,4.33826 1.48807,2.23603 2.72354,4.07681 2.74551,4.0906 0.0219,0.0137 1.05117,-0.0815 2.28714,-0.21168 8.43976,-0.88914 15.46966,-1.51346 15.68991,-1.3934 0.35842,0.19539 -0.9289,0.61664 -9.57667,3.13387 l -7.51972,2.18886 -0.19444,2.1112 c -0.10689,1.16115 -0.19495,3.7339 -0.19561,5.71722 l 0,3.60604 0.67416,0.0749 c 0.37078,0.0412 1.95506,0.16139 3.52061,0.2671 3.96417,0.26764 10.59473,0.95055 11.53648,1.1882 0.62928,0.15878 0.74884,0.2775 0.60316,0.5989 -0.5065,1.11764 -2.19932,1.78142 -6.15913,2.41503 -2.57055,0.41131 -8.6575,0.85074 -10.32851,0.74562 l -0.89547,-0.0563 -1.40543,4.1485 c -0.773,2.28168 -1.41346,4.22655 -1.42323,4.32196 -0.01,0.0953 3.1595,1.62617 7.04285,3.40176 3.88337,1.77558 6.88284,3.24893 6.6655,3.27411 -0.33038,0.0382 -15.00959,-1.63802 -16.43159,-1.87641 -0.35862,-0.0602 -1.06799,0.86054 -3.2626,4.23441 l -2.80433,4.31122 2.96294,1.76021 c 4.88144,2.89996 6.17282,3.72136 5.85061,3.72136 -0.16852,0 -3.11103,-0.59739 -6.53894,-1.32752 -3.42794,-0.73013 -6.38638,-1.32751 -6.57437,-1.32751 -0.18796,0 -1.34523,0.7663 -2.57167,1.7029 l -2.22987,1.70291 -0.82164,2.81653 c -0.4519,1.5491 -0.8871,2.85281 -0.96713,2.89713 -0.08,0.0443 -0.23929,0.002 -0.35393,-0.0929 -0.11463,-0.0953 -0.87096,-0.63614 -1.68069,-1.20166 -1.45523,-1.01631 -1.4795,-1.02468 -2.09739,-0.7233 -0.34382,0.1677 -2.6813,1.29522 -5.19441,2.50563 -3.98575,1.91967 -4.56932,2.26403 -4.56932,2.69633 0,1.35849 -2.74994,2.68539 -8.38954,4.04813 -1.40075,0.33847 -2.5918,0.63724 -2.64675,0.66394 -0.055,0.0268 -0.29087,0.85375 -0.52425,1.83787 -0.23338,0.98412 -0.52548,1.83804 -0.64915,1.89759 -0.12365,0.0596 -2.4392,0.0349 -5.14566,-0.0548 l -4.92083,-0.16316 -1.52115,0.92915 -1.52111,0.92914 -5.52104,0.1712 c -3.03659,0.0941 -5.67007,0.1712 -5.85222,0.1712 -0.18214,0 -1.13159,0.5227 -2.10994,1.16158 -0.97834,0.63886 -1.89594,1.16157 -2.0392,1.16157 -0.14321,0 -1.61388,-0.70262 -3.26814,-1.56138 l -3.00777,-1.56136 -6.92863,0.0897 c -7.66465,0.0991 -11.38521,-0.0575 -17.0483,-0.71798 -29.19079,-3.40432 -48.14622,-18.57357 -54.72067,-43.79074 -1.6951,-6.50186 -2.25514,-11.38974 -2.26628,-19.77982 -0.01,-7.18377 -0.0221,-7.33666 -0.609,-7.44689 -0.57186,-0.1074 -0.56845,-0.11589 0.0749,-0.18598 0.60419,-0.0658 0.67433,-0.17127 0.67577,-1.01608 0.003,-1.3702 1.05067,-5.10385 2.10505,-7.49723 5.22765,-11.86667 15.78027,-21.05244 30.40282,-26.46487 13.54676,-5.01422 30.95656,-6.65017 51.03571,-4.79569 1.53771,0.14202 2.83221,0.23316 2.87669,0.20253 0.0444,-0.0307 -0.40465,-0.87225 -0.99807,-1.87026 l -1.07892,-1.81454 -2.52247,-0.79518 c -1.38736,-0.43734 -3.47725,-1.01365 -4.64421,-1.28068 l -2.12175,-0.48553 -10.78655,1.05062 c -12.69548,1.23655 -36.27106,3.48883 -38.2024,3.64965 -1.19877,0.0998 -1.29845,0.0847 -0.89888,-0.13678 0.7421,-0.4112 5.61932,-1.84094 9.5987,-2.81378 9.40446,-2.29916 17.26585,-3.29754 26.05687,-3.30916 4.88796,-0.006 8.96711,0.28353 12.51493,0.88964 l 1.87817,0.32088 3.92832,-0.41621 c 2.16054,-0.22893 3.95837,-0.4377 3.9951,-0.46396 0.0744,-0.0531 -1.33649,-2.97984 -9.12578,-18.93202 -2.93246,-6.00555 -5.41073,-10.96293 -5.50727,-11.0164 -0.26367,-0.14601 -17.36701,1.62206 -17.7694,1.83693 -0.19144,0.10222 -4.27533,4.84243 -9.07528,10.53379 -4.79996,5.69136 -9.0447,10.69493 -9.43279,11.11905 -0.39736,0.43429 -7.60119,5.11879 -16.49204,10.72443 l -15.78653,9.95331 -15.93094,4.66593 -15.93093,4.66595 -4.56667,0.38488 c -2.51168,0.21167 -4.64754,0.34008 -4.74638,0.28535 -0.147,-0.0814 30.45257,-33.4463 38.42738,-41.90003 1.22688,-1.30056 2.14676,-2.36465 2.0442,-2.36465 -0.10256,0 -1.1696,0.25156 -2.37125,0.55905 l -2.18478,0.55903 -17.73499,12.08696 -17.73502,12.08694 -2.60748,0.811 c -3.68945,1.14752 -14.25143,4.06143 -18.3609,5.06553 -15.25869,3.72824 -29.52425,6.01043 -43.27301,6.92276 -5.064,0.33604 -15.68544,0.38529 -20.22479,0.0938 -13.33527,-0.85637 -25.89957,-3.70208 -33.07386,-7.49096 l -2.06536,-1.09076 2.36355,-1.56788 c 1.29996,-0.86235 4.13134,-2.53867 6.29192,-3.72517 5.91375,-3.24759 16.04414,-10.48968 24.88471,-17.78984 7.96575,-6.57778 13.03648,-11.9349 13.73353,-14.50926 l 0.20312,-0.75009 -2.92703,-1.52141 c -1.60985,-0.83677 -3.01217,-1.52141 -3.11626,-1.52141 -0.1695,0 -4.62917,2.67668 -19.15618,11.49741 l -4.58761,2.78557 -18.86407,7.99626 c -10.37523,4.39793 -18.75195,8.01695 -18.61493,8.04224 0.13705,0.0253 4.36098,0.93677 9.38649,2.02547 l 9.13736,1.97945 0.091,0.94543 c 0.0824,0.8563 0.0401,0.93366 -0.44943,0.82056 -3.00625,-0.69464 -8.84617,-1.36431 -18.81767,-2.15784 -7.18282,-0.57159 -18.80878,-1.32391 -22.77161,-1.47356 -1.15357,-0.0436 -2.80993,-0.17257 -3.6808,-0.28671 -4.7337,-0.6204 -16.66054,1.24392 -31.99501,5.00124 -8.60974,2.10959 -24.95344,6.6105 -30.48281,8.39468 -1.97937,0.6387 -2.00643,0.64316 -2.00643,0.33086 0,-0.26729 4.64598,-2.56031 8.90018,-4.39266 10.90584,-4.69734 23.72479,-8.45603 34.932,-10.24254 6.68277,-1.06527 13.95385,-1.72855 18.94914,-1.72855 l 2.2804,0 7.4353,-8.33848 c 4.08943,-4.58616 10.87671,-12.18414 15.0829,-16.88439 4.20618,-4.70024 7.60657,-8.5691 7.5564,-8.59748 -0.0502,-0.0284 -1.21981,-0.002 -2.5992,0.0611 l -2.50793,0.1127 -3.89086,1.98638 c -29.92053,15.27508 -59.03401,27.20527 -81.86391,33.54633 -1.93226,0.5367 -3.39624,1.0487 -3.48867,1.22016 -0.0876,0.16248 -1.64858,4.26283 -3.46878,9.1119 l -3.31072,8.81647 0.004,2.79932 c 0.003,1.53962 0.0865,2.9698 0.18732,3.17813 0.16402,0.3391 0.78397,0.0519 5.91352,-2.7402 14.06615,-7.65625 28.20514,-12.98359 42.68472,-16.08289 10.84405,-2.32116 21.34898,-2.97024 32.28301,-1.99477 20.90085,1.86467 35.76437,5.45684 46.12101,11.14642 4.65051,2.55483 8.15785,5.58438 9.89368,8.5459 0.29423,0.50197 1.27158,1.80875 2.1719,2.90395 4.09112,4.97662 7.9644,11.68659 9.53094,16.51103 0.68735,2.11683 0.69921,5.46382 0.0231,6.45055 -0.39806,0.58076 -0.5569,1.78999 -0.79558,6.05681 -0.84402,15.08972 -4.10132,25.64449 -10.33505,33.48905 -2.62012,3.29713 -5.93694,5.97039 -10.45676,8.42774 -1.2548,0.68222 -2.28148,1.32108 -2.28148,1.41969 0,0.28073 -3.17807,2.34433 -5.97256,3.87811 -9.66599,5.30527 -21.60069,8.53758 -36.33213,9.83996 -3.36268,0.29728 -5.41743,0.35655 -13.11112,0.37822 l -9.1235,0.0257 -1.55581,2.0572 c -0.85571,1.13148 -1.68297,2.08069 -1.83839,2.10938 -0.15542,0.0287 -3.20445,-0.58467 -6.77561,-1.36303 -3.57115,-0.77835 -6.58914,-1.4152 -6.70663,-1.4152 -0.11752,0 -0.92701,0.39017 -1.79889,0.86706 l -1.58527,0.86703 -3.56019,-1.96657 c -2.49661,-1.3791 -3.68182,-1.92689 -3.96727,-1.83364 -0.22388,0.0731 -1.18376,0.46754 -2.13311,0.87649 -0.94933,0.40896 -1.81744,0.69295 -1.9291,0.6311 -0.1903,-0.10538 -1.53536,-4.49139 -1.57163,-5.12492 -0.01,-0.15972 -0.15806,-0.29039 -0.33086,-0.29039 -0.43879,0 -7.11112,-1.4805 -10.14101,-2.25015 -1.78298,-0.45291 -3.99462,-1.27506 -7.59796,-2.8245 l -5.08283,-2.18561 -3.25101,0.59483 c -1.78805,0.32715 -3.33617,0.54767 -3.44026,0.49003 -0.10407,-0.0576 0.47575,-0.81907 1.28849,-1.69204 l 1.47776,-1.58724 -3.11448,-2.40807 c -1.71295,-1.32445 -3.20851,-2.40641 -3.32348,-2.40438 -0.11497,0.002 -2.63159,0.22229 -5.59247,0.48944 -4.76502,0.42992 -5.97308,0.49036 -5.52796,0.2766 0.0687,-0.033 1.75788,-0.73128 3.75384,-1.55181 l 3.62896,-1.49185 -2.93497,-4.60463 c -1.6142,-2.53254 -3.00171,-4.64161 -3.0833,-4.68681 -0.0816,-0.0452 -2.07932,-0.18538 -4.43936,-0.31154 -2.36004,-0.12618 -4.3584,-0.23375 -4.4408,-0.23909 -0.0824,-0.005 1.24891,-0.73713 2.95845,-1.62621 l 3.10825,-1.61654 -1.73448,-5.72029 c -0.95398,-3.14615 -1.89455,-5.79495 -2.09008,-5.88621 -0.19556,-0.0912 -2.49916,-0.45541 -5.11909,-0.80922 -2.61993,-0.35379 -4.87367,-0.69855 -5.00829,-0.76612 -0.13462,-0.0676 2.22494,-0.66664 5.24347,-1.33125 3.01853,-0.66463 5.61623,-1.27188 5.77266,-1.34949 0.24633,-0.12221 1.18931,-12.2778 0.98039,-12.6378 -0.0427,-0.0737 -3.04145,-0.82717 -6.6638,-1.67448 -3.62236,-0.8473 -7.25998,-1.73118 -8.08362,-1.9642 l -1.49753,-0.42362 1.94697,-0.11119 c 1.07083,-0.0612 4.94953,-0.0878 8.61932,-0.0592 l 6.67236,0.0521 2.25379,-3.86296 c 1.23959,-2.12465 2.19232,-3.9168 2.11716,-3.98255 -0.0751,-0.0658 -3.91875,-1.65039 -8.54136,-3.52137 -4.62261,-1.87097 -8.40935,-3.50309 -8.41498,-3.62694 -0.0126,-0.27721 -0.75895,-0.44174 8.96335,1.97594 4.47334,1.11241 8.19557,1.9881 8.27159,1.94599 0.076,-0.0421 -2.04501,-1.82451 -4.71342,-3.9609 -5.64782,-4.52175 -4.73731,-3.30629 -10.71205,-14.30003 -2.27012,-4.17709 -4.18614,-7.62718 -4.25784,-7.6669 -0.0717,-0.0397 -1.05304,4.0873 -2.18072,9.17113 -2.02627,9.1348 -2.05693,9.33414 -2.61228,16.97868 l -0.56196,7.73534 1.78063,8.77569 c 1.41699,6.98363 2.33082,10.62244 4.47507,17.81939 3.66871,12.31351 4.76451,14.83714 12.61907,29.06168 l 6.28886,11.38905 7.88252,9.30728 7.88252,9.30727 7.61998,5.19029 7.61999,5.1903 22.88352,12.19659 22.88354,12.19659 13.92717,9.01785 13.92718,9.01784 6.00781,5.08706 c 5.9461,5.03477 6.07721,5.16546 12.75961,12.71843 3.71347,4.19729 6.75174,7.71585 6.75174,7.81907 0,0.10322 2.70788,1.08755 6.01753,2.18742 l 6.0175,1.99976 17.62139,1.26517 c 9.69175,0.69585 25.39967,1.7487 34.9065,2.33967 9.50679,0.59097 19.91432,1.24816 23.12782,1.46043 3.21349,0.21227 6.58429,0.35662 7.49066,0.3208 0.90637,-0.0358 18.50194,-0.65846 39.10128,-1.38361 z m -51.30456,-17.16869 c -9.94376,-0.62585 -18.82267,-1.88328 -27.0478,-3.83057 -2.05993,-0.48769 -5.14387,-1.11678 -6.85321,-1.398 -8.64151,-1.42169 -18.73673,-4.221 -26.82246,-7.43757 -6.9644,-2.7705 -15.9778,-7.5706 -21.8642,-11.64382 -3.42326,-2.36879 -8.47271,-6.46271 -10.80522,-8.76044 -1.85298,-1.82543 -5.68209,-6.50807 -7.01623,-8.58028 -1.03699,-1.61063 -1.06847,-1.73012 -1.07144,-4.06552 -0.003,-2.7418 0.36255,-3.721 2.20927,-5.91059 1.59104,-1.88646 3.29961,-3.21775 6.44146,-5.01921 3.27121,-1.87561 7.30289,-3.58745 12.22779,-5.19188 2.01652,-0.65695 4.4754,-1.50857 5.46417,-1.89248 8.12186,-3.15352 20.31256,-6.09155 32.60497,-7.85803 12.27526,-1.76401 23.39422,-2.57183 39.00578,-2.83389 5.10863,-0.0857 13.79298,-0.24537 19.2986,-0.35472 10.87513,-0.21601 12.26467,-0.17793 22.64912,0.62067 16.42125,1.26286 32.63693,3.28209 45.24363,5.63387 15.87269,2.96105 28.77027,7.06243 35.18058,11.18731 3.18505,2.04948 3.15443,2.00656 4.20471,5.89539 l 0.94151,3.48613 -0.77165,3.64929 c -0.8101,3.83109 -1.27593,4.79872 -3.492,7.25376 -0.57701,0.63923 -0.85954,1.2085 -0.86475,1.74237 -0.008,0.75467 -0.0625,0.80693 -1.14277,1.08226 -0.90832,0.23152 -1.66838,0.72821 -3.80553,2.48686 -5.75313,4.7342 -13.63625,9.99083 -24.02223,16.01854 -5.29019,3.07025 -5.94665,3.35117 -13.34898,5.71273 -16.42883,5.24126 -33.19892,8.49196 -50.85664,9.858 -4.81641,0.37259 -20.67687,0.46511 -25.68648,0.14982 z m 23.73891,-3.22011 c 11.75399,-0.87758 22.71127,-2.49467 34.60687,-5.10737 8.87146,-1.94848 11.78611,-2.81052 21.08403,-6.23586 l 8.64957,-3.18646 12.5926,-8.96351 12.59255,-8.96353 2.22871,-2.57207 2.22871,-2.57207 -0.51332,-1.32752 c -2.82302,-7.30081 -11.96388,-13.93354 -24.92381,-18.08508 l -2.4656,-0.78982 -4.42582,0.59645 c -4.06614,0.548 -5.29021,0.63021 -15.06256,1.01172 -6.85629,0.26766 -19.84825,0.57044 -36.55444,0.85186 -24.46029,0.41203 -26.55522,0.47146 -37.25507,1.05668 l -11.33735,0.62008 -16.97736,-0.87524 c -9.33753,-0.48139 -17.76564,-0.92215 -18.72912,-0.97948 -1.05813,-0.063 -1.68327,-0.0429 -1.57882,0.0507 0.0951,0.0852 -0.86946,0.36038 -2.14341,0.61147 -5.92104,1.16703 -13.45302,3.6413 -19.1026,6.27529 -6.44251,3.00366 -12.94447,7.37018 -16.07802,10.79756 l -0.89256,0.97626 1.41682,1.92769 c 10.51757,14.30998 30.17925,24.97635 52.96798,28.73486 1.91063,0.31512 4.28583,0.89393 6.7416,1.64285 4.42021,1.34802 6.89081,1.93315 11.92826,2.82504 5.38242,0.95299 12.32954,1.68281 19.57886,2.05682 3.58081,0.18474 17.07931,-0.053 21.4233,-0.37733 z M 459.7977,757.13739 c 3.8879,-4.16398 13.15807,-9.63934 21.72983,-12.83453 4.06865,-1.51662 10.38969,-3.28622 14.10338,-3.9483 l 0.89889,-0.16025 -0.89889,-0.0981 c -0.49438,-0.0539 -4.96831,-0.30105 -9.94206,-0.54908 l -9.04318,-0.45098 -2.34262,0.46453 c -9.53967,1.89164 -15.67973,5.14734 -17.68766,9.37869 -0.69168,1.45765 -0.6773,4.66113 0.0275,6.13978 0.64033,1.34322 1.77793,3.15305 1.9814,3.15224 0.0839,0 0.61187,-0.49263 1.17334,-1.09396 z m 208.9044,-0.93726 1.24202,-1.36808 -0.16893,-2.57299 c -0.18727,-2.8528 -0.93438,-4.90611 -2.59018,-7.11863 -2.58992,-3.46071 -7.13552,-6.1689 -13.01781,-7.75581 -1.46459,-0.3951 -3.08256,-0.76168 -3.59553,-0.81461 -0.76216,-0.0786 -7.79206,0.74795 -10.05205,1.18195 -0.259,0.0497 0.56902,0.41177 2.08076,0.90975 8.64675,2.84827 15.85105,6.99416 20.21856,11.63529 1.71042,1.81755 3.82563,5.07955 4.20385,6.48298 0.11682,0.43353 0.26302,0.78822 0.32486,0.78822 0.0618,0 0.67134,-0.61563 1.35445,-1.36807 z m -114.644,-17.72747 c 11.20603,-0.18572 32.50948,-0.54694 47.34101,-0.8027 l 26.96639,-0.46501 5.32775,-0.88449 5.32776,-0.8845 -0.83336,-0.3726 c -0.45833,-0.20494 -1.97943,-0.7055 -3.38018,-1.11237 -10.81763,-3.14203 -30.26606,-5.35426 -57.82794,-6.5778 -17.7677,-0.78876 -37.5782,-0.98407 -44.94398,-0.44312 -16.40109,1.20455 -30.47338,3.52422 -44.49455,7.3345 -6.04835,1.64364 -7.67712,2.17279 -7.04123,2.28752 0.2472,0.0446 10.15734,0.54422 22.02256,1.11029 11.86521,0.56606 22.58435,1.0849 23.82031,1.15299 1.23596,0.0681 3.39327,0.0948 4.79403,0.0594 1.40075,-0.0354 11.7154,-0.21638 22.92143,-0.4021 z m 11.63888,-33.71485 c -0.20912,-0.18717 -0.61963,-5.5165 -0.67902,-8.81455 l -0.0234,-1.30576 2.92136,0.1203 c 1.60676,0.0662 3.13375,0.1827 3.39327,0.25896 0.25957,0.0763 0.91315,0.66877 1.45244,1.31674 l 0.98051,1.17811 -1.29748,2.90505 -1.2975,2.90503 -2.33715,0.82178 c -2.51294,0.88358 -2.75809,0.93196 -3.11294,0.61434 z m -415.38571,89.89797 c 1.56555,-0.13363 3.29938,-0.24429 3.85297,-0.24594 0.72643,-0.002 2.45071,-0.46842 6.19638,-1.67556 l 5.18988,-1.67261 7.56327,-6.5829 c 4.15978,-3.62061 7.75796,-6.75114 7.99594,-6.95672 0.38937,-0.33639 3.72918,-7.35864 3.54762,-7.45921 -0.0415,-0.023 -4.1778,1.78607 -9.19182,4.02007 -7.95218,3.54312 -9.25082,4.06286 -10.169,4.06976 -0.57893,0.004 -5.43464,0.18216 -10.79047,0.39514 l -9.73786,0.38722 -8.23973,-2.70511 -8.23973,-2.70508 -19.87039,-1.52317 c -10.92873,-0.83774 -19.935235,-1.48727 -20.014484,-1.44338 -0.07925,0.0439 1.767606,2.05129 4.104106,4.46087 l 4.248174,4.38106 20.668024,6.96402 20.66801,6.96402 4.53652,0.77892 c 2.49509,0.42843 4.60393,0.78177 4.68633,0.78525 0.0824,0.003 1.43071,-0.10302 2.99626,-0.23665 z m 10.34674,-18.67948 c 2.87783,-0.22168 5.98047,-0.79624 8.1649,-1.512 3.70799,-1.21497 8.44695,-4.23161 10.25017,-6.52485 2.22776,-2.83318 6.89545,-7.41908 11.92614,-11.71719 l 1.86668,-1.59485 1.67081,-10.10392 c 1.25106,-7.56568 1.73221,-11.29197 1.91529,-14.8332 l 0.24451,-4.72929 -3.28641,-9.04373 -3.28641,-9.04373 -0.44177,-10.0571 -0.44175,-10.05713 1.3671,-4.54559 c 0.75191,-2.50008 1.69397,-5.47902 2.09347,-6.61985 0.39951,-1.14084 2.21805,-6.85333 4.04122,-12.69441 4.60754,-14.76172 4.42573,-14.25751 5.61679,-15.5762 0.66701,-0.73852 1.66023,-2.49017 2.82269,-4.9782 1.03579,-2.21691 2.15458,-4.22437 2.64806,-4.75144 1.84934,-1.97525 2.25736,-3.11553 2.25636,-6.30572 -6.1e-4,-2.21072 -0.13347,-3.23858 -0.55615,-4.30571 -1.9144,-4.83337 -5.76738,-8.45317 -7.91945,-7.44017 -0.28176,0.13262 -1.4561,0.40801 -2.60967,0.61199 -21.27926,3.76258 -34.67455,20.71364 -38.63074,48.88522 -0.86126,6.13291 -1.15374,11.82249 -1.00018,19.45597 l 0.15103,7.50827 -1.0841,0.15698 c -3.03068,0.43885 -6.49629,0.90792 -9.31627,1.26095 l -3.13852,0.39293 -3.21938,-0.86344 -3.21938,-0.86345 -5.08789,-8.46293 c -3.13566,-5.21572 -7.09781,-12.31503 -10.32619,-18.50231 -13.88488,-26.61072 -13.66675,-26.17419 -14.7214,-29.45994 -4.26986,-13.30256 -9.584116,-21.03523 -15.285101,-22.24104 -1.309651,-0.277 -1.350414,-0.27496 -2.906932,0.14488 -0.868262,0.23422 -2.197721,0.57043 -2.954373,0.74714 -3.715751,0.8678 -6.691037,3.98684 -8.353104,8.75671 -1.064185,3.05401 -1.533892,5.93568 -1.715363,10.52367 -0.143158,3.61938 -0.08283,4.77908 0.341065,6.55463 1.792693,7.50919 7.497949,19.49604 16.783399,35.26224 1.818419,3.08754 2.231404,3.99208 2.386596,5.2271 0.349326,2.77994 0.399955,2.87513 1.78286,3.35197 0.680053,0.23448 1.283003,0.44829 1.339913,0.47514 0.24697,0.11649 5.38901,11.27293 5.2321,11.35182 -0.0957,0.0482 -0.2355,-0.008 -0.3105,-0.12421 -0.37454,-0.58158 -6.306731,-5.29569 -8.420585,-6.69156 -4.544443,-3.00086 -9.108011,-4.79061 -13.755424,-5.39462 -6.857721,-0.89127 -13.368578,1.39587 -20.55482,7.22052 l -2.743826,2.22395 -3.295893,0.61119 c -30.499643,5.65588 -42.409155,17.18132 -34.428382,33.31808 2.851913,5.76643 8.98105,12.88075 16.401745,19.03807 3.540395,2.93763 6.188427,4.89523 6.621805,4.89523 0.563646,0 24.725025,-1.47908 25.835795,-1.58158 l 0.947761,-0.0874 -2.514068,-1.94499 c -6.577367,-5.08848 -12.952036,-11.98637 -16.166761,-17.49365 -2.704006,-4.63236 -3.801332,-8.24019 -3.8004,-12.49518 0.0011,-4.82855 1.551292,-8.56683 5.190992,-12.51764 1.775965,-1.92778 5.382318,-4.86435 5.576864,-4.54112 0.05724,0.0951 -0.299998,0.98542 -0.793979,1.97832 -2.74956,5.52657 -4.147579,10.47952 -4.423824,15.67285 -0.206839,3.8886 0.152298,6.65263 1.26297,9.72012 2.323414,6.41686 8.010543,12.14077 15.650122,15.75134 2.406686,1.13744 5.738919,2.36435 7.574836,2.78904 l 1.062732,0.24584 3.431668,-1.16619 c 12.248973,-4.16255 16.465112,-5.68044 16.461592,-5.92645 -0.002,-0.14738 -1.062313,-5.94312 -2.355996,-12.87941 l -2.352154,-12.61144 2.469988,-7.35065 c 1.35848,-4.04287 2.537272,-7.38793 2.619512,-7.43348 0.21821,-0.12086 0.30933,0.30454 2.63279,12.29188 1.37105,7.07369 2.24786,10.99396 2.47729,11.07621 1.14291,0.40972 8.82663,-1.17817 17.99812,-3.71943 12.79343,-3.54484 23.94492,-7.53835 25.73058,-9.21447 0.88572,-0.8314 1.23299,-0.69081 1.00995,0.40887 -0.72326,3.566 -8.14039,7.26555 -22.21116,11.0786 -5.56594,1.50831 -12.25356,3.05092 -18.72667,4.31961 -2.7191,0.53293 -4.98757,0.98512 -5.04105,1.00485 -0.0534,0.0197 0.4165,2.81246 1.04441,6.20606 0.90268,4.87873 1.23659,6.1983 1.59535,6.30463 0.24955,0.0739 1.09418,0.18766 1.87695,0.25265 1.21248,0.10068 1.42323,0.0774 1.42323,-0.15753 0,-0.98787 7.76286,-6.14987 13.93172,-9.26402 5.69454,-2.87474 10.05804,-4.54871 13.32449,-5.11175 2.02181,-0.34851 2.93469,-0.39334 3.55745,-0.17474 0.29603,0.10392 -2.2541,1.81492 -9.70357,6.51061 -5.55783,3.50331 -10.49099,6.59701 -10.9626,6.87489 l -0.85745,0.50528 10.41121,2.5532 c 5.72617,1.40427 10.52846,2.60835 10.67175,2.67573 0.1433,0.0674 5.88843,-2.2165 12.76698,-5.07528 6.87854,-2.8588 12.77645,-5.2912 13.10646,-5.40532 0.53334,-0.18448 0.83968,-0.10027 2.75686,0.75758 2.08026,0.93085 2.13759,0.97574 1.61434,1.26431 -0.29838,0.16454 -5.86466,2.67583 -12.36951,5.58064 -12.97205,5.7928 -12.02569,5.23335 -12.44144,7.35478 l -0.18141,0.92569 -2.26857,0.19533 -2.26857,0.19532 -2.90748,-1.54553 c -5.73526,-3.04871 -11.41963,-4.83315 -18.14317,-5.69552 -3.29324,-0.4224 -10.08676,-0.42055 -13.63301,0.004 -6.04956,0.72376 -13.897174,2.78328 -17.018978,4.46647 -2.837353,1.52983 -3.956145,3.08529 -3.952784,5.49566 0.0043,3.0245 1.9504,6.0914 6.508926,10.25716 2.22825,2.03627 1.742379,1.88229 7.730446,2.44983 6.56479,0.62223 27.01222,1.99006 29.74904,1.99006 0.85587,0 1.55273,0.076 1.55273,0.16929 0,0.50055 8.8064,3.10197 13.64106,4.02958 5.74941,1.10313 10.45609,1.44866 14.9829,1.09997 z m 548.92221,-56.69879 c 0.33834,-0.10119 1.75408,-0.22392 3.14609,-0.27264 5.45359,-0.19083 21.44966,-2.29193 29.91942,-3.92992 1.49819,-0.28973 2.72405,-0.57345 2.72417,-0.63046 1.2e-4,-0.057 0.31066,-0.1135 0.6901,-0.12555 0.94823,-0.03 6.03436,-1.43076 7.7852,-2.14396 1.98479,-0.80851 2.67789,-1.46404 2.51036,-2.37432 -0.096,-0.52117 0.004,-0.80353 0.35811,-1.00946 0.27021,-0.15724 0.51791,-0.36129 0.55048,-0.45341 0.0325,-0.0921 1.62376,-1.72871 3.53601,-3.63685 6.70109,-6.68669 13.1146,-14.08488 16.01552,-18.47444 2.42149,-3.66405 2.58503,-4.18503 4.82172,-15.36192 l 2.09208,-10.45422 -0.77807,-1.6594 c -4.2959,-9.16168 -12.47253,-18.06442 -23.09477,-25.14566 -12.4991,-8.33244 -31.41861,-15.53562 -46.39718,-17.66469 -6.64425,-0.94442 -9.76998,-1.16267 -16.47946,-1.1507 -5.28565,0.009 -6.4364,0.0624 -9.75537,0.44969 -10.92393,1.27443 -19.91852,4.03815 -28.46503,8.74628 -9.63177,5.30599 -18.13829,13.28808 -23.11105,21.68631 l -1.59014,2.68554 -2.13772,-0.0947 -2.13775,-0.0947 -0.22673,3.63194 c -0.37399,5.99123 0.25592,14.33709 1.52654,20.22591 4.31561,20.00058 15.81804,34.10214 33.84493,41.49266 7.58846,3.11106 16.21702,5.0103 26.35941,5.80204 3.62854,0.28325 17.31,0.25083 18.29313,-0.0434 z m -13.19948,-15.25463 c -6.99951,-0.33216 -13.87322,-1.629 -19.44262,-3.66817 -2.66871,-0.97712 -7.29584,-3.43027 -9.45738,-5.01399 -7.53318,-5.51941 -11.99474,-12.91005 -13.99508,-23.18308 -0.37516,-1.92675 -0.50849,-4.04848 -0.50355,-8.01363 0.008,-6.0237 0.31679,-7.69132 2.38161,-12.84126 2.0496,-5.11191 4.52092,-9.12025 8.19649,-13.29428 6.7245,-7.63638 15.42445,-12.49742 26.37856,-14.73881 4.04205,-0.82706 7.06166,-1.13952 11.08619,-1.14716 15.52611,-0.0294 29.82154,5.8468 39.05024,16.05191 3.67651,4.06546 6.71047,8.75365 8.88881,13.73526 1.50054,3.43159 1.9649,6.95455 1.70011,12.8981 -0.60257,13.52603 -6.09988,23.34571 -17.0862,30.52061 -7.15931,4.67556 -18.16733,8.14098 -27.45931,8.64439 -2.726,0.14768 -7.19685,0.17069 -9.73787,0.0501 z m 11.85737,-2.92972 c 11.16496,-1.58958 20.19306,-5.9658 25.98074,-12.59373 2.4179,-2.76892 4.93527,-6.96905 5.44745,-9.08894 0.14335,-0.59324 0.67276,-2.64674 1.17648,-4.56335 1.42769,-5.43226 1.91621,-8.39456 1.71025,-10.37125 -0.0999,-0.9583 -0.75414,-6.38114 -1.45397,-12.05076 l -1.27246,-10.30839 -2.76906,1.76249 c -1.52297,0.96936 -3.74769,2.32884 -4.94384,3.02107 -2.07569,1.20123 -2.24986,1.26354 -3.82272,1.36755 -6.33882,0.41918 -11.76218,-0.54479 -16.31602,-2.9001 -2.60986,-1.34986 -4.40112,-2.67269 -5.97117,-4.4097 -0.87967,-0.9732 -1.08369,-1.38404 -1.08369,-2.18216 l 0,-0.98323 -1.55758,-0.20694 c -4.87061,-0.64712 -10.70305,0.22113 -17.09115,2.54424 -4.42516,1.60928 -5.10069,2.036 -7.60203,4.80198 -11.78947,13.03679 -13.31226,24.5178 -4.5323,34.17127 4.05712,4.46074 9.52788,8.04891 16.50041,10.82231 l 2.4474,0.9735 4.19477,-0.0895 c 6.34529,-0.13539 10.69,-0.88675 15.63104,-2.70318 10.84371,-3.98633 16.10158,-12.47287 14.8213,-23.92253 -0.20144,-1.80159 -0.54571,-4.02235 -0.76506,-4.93502 -0.21933,-0.91267 -0.34599,-1.69176 -0.28144,-1.7313 0.81292,-0.49808 1.71863,4.64899 1.72082,9.77939 0.003,4.39365 -0.36762,6.4023 -1.76589,9.59868 -3.96921,9.07369 -15.10178,14.29667 -30.47277,14.29667 -3.83771,0 -4.0938,-0.0564 -7.87679,-1.73449 -9.18068,-4.07246 -15.97273,-9.93463 -18.85086,-16.26999 -1.47686,-3.25093 -1.89655,-8.64018 -0.95371,-12.24724 1.03758,-3.96961 3.35986,-8.49703 6.30618,-12.29421 2.2229,-2.86487 5.41069,-6.28024 6.34729,-6.80045 3.24693,-1.80339 9.87233,-3.89332 14.21147,-4.48283 2.19132,-0.29772 6.77393,-0.35485 8.35254,-0.10411 0.56476,0.0897 1.08441,0.13124 1.15473,0.0923 0.16252,-0.09 0.98816,-9.42208 0.84084,-9.50367 -0.23137,-0.12814 -6.40763,0.30601 -8.7657,0.61616 -19.42706,2.55529 -31.89761,13.69911 -36.02868,32.19559 -1.20615,5.40035 -1.77706,12.53595 -1.26794,15.84726 0.27845,1.81101 0.46745,2.23165 2.08762,4.64632 7.95503,11.856 16.86844,18.61141 26.68507,20.22446 1.16652,0.19166 2.78021,0.26219 5.79191,0.25309 2.29618,-0.007 4.22182,0.0134 4.27921,0.0452 0.33148,0.18358 7.2977,-0.23225 9.75731,-0.58242 z M 693.91343,684.1596 c -4.32948,-2.23556 -9.88318,-8.39206 -12.2178,-13.54394 -2.21023,-4.87731 -2.20784,-10.13005 0.007,-14.3538 1.51973,-2.89875 4.67908,-6.03366 8.62684,-8.56006 2.08731,-1.33579 6.76938,-3.63652 7.40042,-3.63652 1.13573,0 7.25126,2.68888 10.53691,4.63289 10.70316,6.33273 13.77443,15.5237 8.29441,24.82144 -1.30362,2.2118 -4.725,5.91726 -7.0175,7.60019 -2.2504,1.65203 -4.93443,2.97147 -7.22921,3.55381 -1.33499,0.33877 -1.93388,0.38811 -4.19477,0.34553 l -2.63743,-0.0497 -1.56843,-0.80987 z m -264.79962,29.26371 c 9.22781,-0.4774 16.67587,-1.59505 24.26975,-3.64183 4.69704,-1.26599 7.77978,-2.33309 11.53563,-3.99308 3.59974,-1.59099 10.78656,-5.73366 10.78656,-6.21765 0,-0.0733 1.25363,-0.84964 2.78587,-1.72528 4.60687,-2.63276 7.58292,-5.08072 10.12872,-8.33148 6.08733,-7.77291 9.33454,-18.30283 10.14752,-32.90615 l 0.2856,-5.13003 -3.29317,-6.37347 c -3.98824,-7.71871 -5.79055,-10.07732 -11.63734,-15.22942 -13.89729,-12.246 -34.52158,-18.74928 -57.99115,-18.2858 -11.42697,0.22564 -16.44577,1.17279 -29.67728,5.60062 -7.96899,2.66677 -25.88507,9.26467 -26.84851,9.88742 -0.26476,0.17113 -4.58564,3.70878 -9.60202,7.86142 l -9.12064,7.55027 -2.03706,5.2271 c -1.1204,2.87491 -2.72574,6.98192 -3.56743,9.1267 -0.8417,2.14477 -1.52551,4.19828 -1.51958,4.56335 0.007,0.36507 0.43563,3.12797 0.95491,6.13977 0.51928,3.01182 1.27356,7.52953 1.67615,10.03938 l 0.73198,4.56335 9.31024,10.5891 9.31023,10.58913 0,1.37696 0,1.37694 2.47193,0.62648 c 13.20664,3.347 29.42501,5.8386 43.07131,6.6169 4.94577,0.2821 13.38615,0.3291 17.82778,0.0993 z m -5.53111,-10.6255 c -23.00241,-1.2018 -38.4857,-10.81972 -44.32818,-27.53583 -1.83102,-5.23872 -1.97742,-7.12642 -1.24069,-15.99898 l 0.63262,-7.619 1.76286,-3.99679 c 1.91725,-4.34678 3.14629,-6.39808 5.39957,-9.01189 10.54946,-12.23737 29.83202,-19.23939 52.14523,-18.93534 l 4.04364,0.0551 3.55639,0.95203 c 8.77747,2.34973 14.88968,5.53659 18.57685,9.68591 1.70116,1.91437 1.9791,2.41717 5.63118,10.18752 l 3.0807,6.55464 0.18041,3.06988 0.1804,3.06989 1.36567,2.07425 c 2.29475,3.48537 2.45316,4.10134 2.23935,8.70697 -0.45908,9.88838 -3.52523,16.97934 -10.17029,23.52046 -7.47313,7.35622 -20.4733,12.97798 -34.39135,14.87207 -3.33685,0.45411 -5.21005,0.52959 -8.66436,0.34912 z m 9.67078,-3.91107 c 7.84669,-0.81812 15.12069,-3.00496 21.17877,-6.36715 8.92231,-4.95179 14.19997,-11.6497 16.99788,-21.57204 0.72567,-2.57347 0.77984,-3.19215 0.90137,-10.29451 l 0.12929,-7.55652 -1.83057,-2.37017 c -1.00681,-1.30359 -2.36696,-2.96099 -3.02257,-3.68315 l -1.192,-1.313 0.43268,-1.45474 c 0.61412,-2.06477 0.80439,-4.22719 0.50758,-5.76917 -0.14054,-0.73014 -0.27638,-1.06617 -0.30186,-0.74673 -0.0255,0.31943 -0.24535,1.04826 -0.48859,1.61962 -1.33493,3.13569 -5.40329,5.3729 -11.10153,6.10478 -2.78077,0.35717 -8.33145,0.3447 -9.37828,-0.021 -0.4356,-0.15219 -2.6173,-1.29431 -4.8482,-2.53805 -3.93637,-2.19456 -6.77657,-4.24664 -8.53019,-6.1632 l -0.71065,-0.77671 -2.39561,-0.10231 c -2.53444,-0.10824 -6.11729,0.0588 -8.58807,0.40055 -13.08055,1.80895 -22.50971,9.84473 -25.50925,21.73967 -0.72941,2.89247 -0.7271,9.73463 0.004,12.50982 1.70527,6.47127 5.11466,10.82545 10.83138,13.83289 4.08568,2.14939 8.83512,3.31561 15.06435,3.69907 3.18682,0.19617 3.73245,0.18163 9.73787,-0.25951 l 6.36184,-0.46736 1.34832,-0.67863 c 8.44387,-4.24998 14.78118,-11.02155 17.34405,-18.53258 1.72243,-5.04798 1.60599,-12.52222 -0.28531,-18.3121 -0.28786,-0.88126 -0.2237,-1.29314 0.16767,-1.07639 0.20677,0.11451 0.63242,1.4114 1.25106,3.81164 0.76441,2.96584 0.77232,11.21266 0.0134,13.91745 -1.18338,4.21738 -3.06865,7.74205 -5.92721,11.08132 -3.08625,3.60525 -6.48234,6.34569 -10.74417,8.66992 l -2.5944,1.41487 -6.38058,0.47464 c -6.81524,0.50701 -9.56228,0.51025 -13.80226,0.0163 -13.00616,-1.51523 -20.73209,-7.58362 -23.13587,-18.1723 -0.51351,-2.26202 -0.51704,-9.16416 -0.007,-11.44986 1.3995,-6.25773 4.78941,-11.75385 9.8531,-15.97489 2.05517,-1.71316 6.35047,-4.02326 9.23743,-4.96807 4.47924,-1.46591 10.5899,-2.24797 15.69302,-2.0084 l 2.21963,0.10419 -0.21197,-0.39964 c -0.11662,-0.2198 -0.43603,-0.9722 -0.70982,-1.67204 -1.58006,-4.03855 2.75677,-7.65919 12.16154,-10.15315 l 2.19581,-0.58228 -1.14712,-0.17642 c -1.68776,-0.25956 -6.68224,-0.21634 -9.27491,0.0803 -9.81313,1.12256 -21.84138,5.2964 -32.79277,11.37914 -5.64431,3.13502 -9.25798,5.80584 -9.26406,6.84696 -0.003,0.26407 -1.34761,3.363 -2.99123,6.8865 -4.03016,8.63957 -4.99374,12.06148 -5.30846,18.85187 -0.64594,13.93649 5.91316,23.58326 19.42137,28.56388 4.82816,1.78021 10.07801,2.86427 16.74076,3.45692 1.56555,0.13926 3.41949,0.25349 4.11987,0.25386 0.74556,0 1.27341,0.0783 1.27341,0.18802 0,0.22682 3.75195,0.0765 7.28575,-0.29202 z m -10.6819,-15.42077 c -3.73845,-0.75232 -7.62899,-3.43885 -10.52619,-7.26868 -2.35085,-3.10754 -4.59981,-7.52088 -5.71535,-11.21564 -0.48726,-1.61382 -0.48738,-1.82727 -0.003,-3.88617 1.41967,-6.02381 4.39541,-11.75113 7.70257,-14.82489 1.43162,-1.3306 3.9421,-2.78286 5.60313,-3.24127 1.15236,-0.31801 1.98031,-0.40237 4.28381,-0.43638 4.67394,-0.069 7.91344,0.72488 11.52949,2.82543 4.2055,2.44297 8.20566,6.82078 10.4205,11.40425 0.65559,1.35671 0.6886,1.62147 0.4495,3.60462 -1.5494,12.85073 -5.91963,20.86556 -12.45083,22.83425 -1.39092,0.41926 -1.66709,0.4401 -5.80299,0.43796 -2.95357,-0.002 -4.71004,-0.0762 -5.4915,-0.23348 z M 189.71389,574.72092 c 2.51469,-6.01437 2.77704,-6.50688 8.5741,-16.09617 6.7867,-11.22633 15.41592,-25.77036 17.48675,-29.47289 0.76568,-1.369 3.15291,-4.87863 5.30494,-7.79918 8.14401,-11.05234 12.5516,-16.87591 13.90267,-18.369 3.38262,-3.73822 16.57852,-17.01665 22.88984,-23.03301 12.59972,-12.01087 20.18927,-18.30328 25.97255,-21.53357 1.51424,-0.84579 3.23432,-1.90082 3.8224,-2.3445 l 1.06925,-0.8067 -5.16737,-0.11617 c -11.06585,-0.24877 -22.00113,0.54002 -28.702,2.07034 -9.22441,2.10666 -13.27822,6.00728 -11.19541,10.77231 1.23961,2.83595 5.07308,5.9711 7.33116,5.99568 1.44193,0.0157 0.72575,0.16966 -4.08979,0.87923 -11.69192,1.7228 -20.42106,4.45927 -24.37341,7.64073 -3.38934,2.72825 -3.61338,6.2709 -0.61385,9.70607 1.4956,1.71282 3.26629,3.16176 5.34441,4.37329 0.90132,0.52546 1.55965,0.99919 1.46298,1.05273 -0.0967,0.0535 -1.75697,0.28218 -3.68953,0.50809 -17.19201,2.00975 -26.61523,6.50601 -27.56584,13.15299 -0.48078,3.3617 2.26327,8.27852 6.89307,12.35108 0.91905,0.80842 1.67101,1.52914 1.67101,1.60161 0,0.0725 -0.8427,0.1824 -1.87267,0.24433 -22.04106,1.32506 -29.52285,9.16382 -21.49897,22.52474 1.61681,2.69221 5.00854,6.81561 5.47493,6.65598 0.16307,-0.0559 0.2403,-0.008 0.17163,0.10594 -0.0686,0.11408 -1.40076,0.38543 -2.96022,0.603 -5.68658,0.79332 -10.67318,2.54067 -12.69007,4.44667 -3.91398,3.69882 -1.26949,9.52497 7.46626,16.44915 2.71066,2.14854 6.82832,4.99695 6.92163,4.78807 0.036,-0.0807 1.23283,-2.93853 2.65955,-6.35084 z m 731.97419,2.80244 c 2.86728,-4.01583 4.65839,-7.14001 5.89833,-10.28828 0.90729,-2.3037 0.98958,-5.93747 0.16407,-7.24789 -1.63425,-2.59433 -5.41847,-3.61454 -10.95144,-2.95247 -1.34793,0.16131 -2.50604,0.26266 -2.57358,0.22526 -0.0675,-0.0374 0.0605,-0.55255 0.28452,-1.14476 1.55818,-4.11895 1.76106,-9.19066 0.47452,-11.86282 -2.09942,-4.36064 -6.65785,-6.90221 -13.60278,-7.58428 -1.08083,-0.10613 -1.6918,-0.24257 -1.61067,-0.35964 0.70329,-1.01502 2.19081,-3.84866 2.7551,-5.24831 1.50044,-3.72165 1.71323,-7.23122 0.60369,-9.9564 -0.63679,-1.56398 -2.70377,-3.9424 -4.49991,-5.17787 -1.68621,-1.15985 -4.66433,-2.41907 -7.60207,-3.21432 -2.33469,-0.63201 -7.22127,-1.39826 -8.91704,-1.39826 -0.61819,0 -1.01028,-0.082 -1.01028,-0.21123 0,-0.11617 0.33217,-0.93641 0.73813,-1.82274 1.2024,-2.62517 1.68112,-4.38216 1.86464,-6.84382 0.43536,-5.83967 -2.41379,-10.28742 -8.87983,-13.86214 -4.65245,-2.5721 -11.61436,-4.59183 -18.3734,-5.33032 -1.02655,-0.11216 -1.90946,-0.21947 -1.96198,-0.23846 -0.0526,-0.019 0.38235,-0.40289 0.96642,-0.85313 0.58406,-0.45024 1.50342,-1.33496 2.04306,-1.96605 0.90499,-1.05837 0.98113,-1.27623 0.98091,-2.80684 -2.1e-4,-1.50116 -0.0812,-1.74457 -0.84917,-2.55261 -2.02478,-2.13037 -6.96359,-4.20047 -12.93341,-5.42103 -0.82398,-0.16848 -1.56555,-0.35262 -1.64794,-0.40922 -0.47869,-0.32886 -3.40961,-0.71767 -8.72678,-1.15773 -3.31459,-0.27432 -6.20914,-0.49877 -6.43229,-0.49877 -0.22317,0 0.16374,0.32157 0.85977,0.7146 0.69604,0.39305 4.51649,3.62265 8.48987,7.17691 5.61682,5.02435 10.79943,10.0532 23.29114,22.60018 8.83673,8.87584 16.39032,16.49248 16.78574,16.92588 0.39545,0.43338 6.21626,7.99393 12.93515,16.80119 l 12.2162,16.01321 7.39352,13.19222 c 4.06645,7.25572 8.05684,14.40133 8.86753,15.87913 0.81068,1.47779 1.55516,2.63522 1.65434,2.57206 0.0992,-0.0631 0.68686,-0.82422 1.30592,-1.69125 z m 16.21417,-19.16607 c 4.49971,-7.27402 7.96575,-14.51594 11.03951,-23.06565 0.59058,-1.64281 1.41594,-3.62164 1.83407,-4.39741 0.81316,-1.50862 7.81896,-15.85376 13.33122,-27.29712 l 3.3572,-6.96949 -1.01918,-1.74236 -1.01917,-1.74237 -36.84431,-8.16915 c -20.26438,-4.49305 -37.51846,-8.27747 -38.34244,-8.40984 -3.55839,-0.57168 -28.82518,-4.46808 -29.42402,-4.53752 -0.56908,-0.0659 -0.43254,0.11436 0.99194,1.31034 1.93948,1.62833 3.45506,3.33365 4.16538,4.68688 0.62527,1.1912 0.51014,3.08623 -0.23715,3.90379 -0.28465,0.31144 -0.4738,0.59049 -0.42032,0.62012 0.0536,0.0296 1.38473,0.23473 2.9583,0.4558 11.16805,1.56898 18.63181,6.18824 20.79541,12.87011 0.99245,3.06492 0.85928,7.40019 -0.34939,11.37436 -0.2498,0.8214 -0.48196,1.58901 -0.51587,1.7058 -0.0377,0.12989 0.95683,0.40277 2.56127,0.70278 10.10241,1.88902 17.32045,5.86105 19.74704,10.86663 0.87281,1.80041 0.9511,5.74439 0.15976,8.04808 -0.44401,1.29261 -2.43546,4.88502 -3.32274,5.99402 -0.18661,0.23322 0.11644,0.27876 2.27393,0.34178 5.49272,0.16043 8.96881,1.89031 10.78667,5.36796 0.63096,1.20705 0.68927,1.63406 0.66763,4.89023 -0.0209,3.16619 -0.11787,3.84786 -0.86061,6.05681 -1.1859,3.52699 -1.23671,3.28956 0.7345,3.43192 8.41786,0.60798 12.97033,3.86771 12.47216,8.93061 l -0.17144,1.74237 1.19616,-1.6594 c 0.65793,-0.91267 2.21242,-3.30221 3.45449,-5.31008 z m -761.17177,-2.51223 c 3.76165,-1.15356 6.83935,-2.16728 6.83935,-2.25272 0,-0.0854 -0.53195,-0.65978 -1.18211,-1.27631 -2.51513,-2.38502 -5.43504,-6.74053 -6.46267,-9.64006 -0.77307,-2.18126 -0.92179,-5.74569 -0.31417,-7.52955 0.94399,-2.77134 2.7298,-4.77779 5.94842,-6.68334 3.14123,-1.85971 8.72032,-3.64874 13.95327,-4.47434 0.92965,-0.14668 1.80196,-0.324 1.93849,-0.39408 0.13652,-0.07 -0.0834,-0.49116 -0.48869,-0.93576 -1.0511,-1.15305 -2.52437,-3.79635 -3.06257,-5.49475 -0.64314,-2.02955 -0.58817,-5.38003 0.11918,-7.26427 2.24112,-5.96998 10.76044,-10.65796 23.83666,-13.11678 l 2.5145,-0.47282 -0.8368,-0.91993 c -2.09167,-2.29948 -3.19104,-5.33018 -2.91571,-8.0379 0.21003,-2.06575 0.76768,-3.27773 2.29856,-4.99566 2.88245,-3.23464 7.93109,-5.56685 15.88235,-7.33681 1.73444,-0.38608 4.27186,-0.8656 5.63873,-1.06559 2.004,-0.29319 2.44977,-0.41459 2.30218,-0.62692 -0.81233,-1.16866 -2.90866,-5.25014 -3.4463,-6.7098 -0.68872,-1.86986 -0.91309,-3.99965 -0.5064,-4.80701 l 0.23543,-0.46739 -1.43394,0.11078 c -3.56743,0.27558 -9.36171,0.96822 -13.88386,1.65965 -17.66468,2.7009 -50.14221,9.73532 -83.88004,18.16786 -5.19103,1.29746 -9.94359,2.48087 -10.56122,2.6298 -0.77877,0.18778 -1.06988,0.34707 -0.94972,0.51969 0.23001,0.33042 3.39018,7.47642 8.69435,19.66034 l 4.33291,9.95287 12.75348,19.75038 c 7.01442,10.86271 13.38114,20.73918 14.14827,21.9477 0.76713,1.20852 1.45192,2.19793 1.52176,2.1987 0.0698,0 3.20468,-0.94241 6.96631,-2.09598 z"
       id="path3347"
       inkscape:connector-curvature="0" />
  </g>
</svg>
